<svg width="122" height="69" viewBox="0 0 122 69" fill="none" xmlns="http://www.w3.org/2000/svg">
<path d="M0 0H122V69H0V0Z" fill="#343E51"/>
<path d="M93.0884 30.4824C92.8543 30.4003 92.6181 30.3243 92.3803 30.2544C92.4202 30.0875 92.457 29.9227 92.4897 29.7608C93.0257 27.1018 92.6753 24.9597 91.4783 24.2545C90.3306 23.5783 88.4536 24.2833 86.558 25.969C86.3712 26.1354 86.1885 26.3067 86.0101 26.4825C85.8907 26.3656 85.7692 26.2509 85.6457 26.1386C83.659 24.3362 81.6676 23.5766 80.4719 24.2839C79.3252 24.9621 78.9857 26.9758 79.4683 29.4958C79.5163 29.7454 79.5706 29.9936 79.6309 30.2404C79.349 30.3222 79.077 30.4093 78.8167 30.5021C76.4875 31.3319 75 32.6322 75 33.9811C75 35.3742 76.5969 36.7715 79.0229 37.6187C79.2196 37.6871 79.4179 37.7505 79.6177 37.8088C79.5528 38.0746 79.4952 38.3422 79.4449 38.6112C78.9848 41.0875 79.3441 43.0536 80.4877 43.7275C81.6688 44.4235 83.6512 43.7082 85.5815 41.9841C85.738 41.8439 85.8911 41.6998 86.0406 41.5518C86.2337 41.7422 86.432 41.9271 86.6353 42.1062C88.5051 43.7502 90.3517 44.414 91.4942 43.7382C92.6742 43.0402 93.0577 40.9281 92.5598 38.3584C92.5206 38.157 92.4766 37.9567 92.4279 37.7576C92.5671 37.7154 92.7037 37.672 92.8369 37.6269C95.359 36.7731 97 35.3928 97 33.9811C97 32.6273 95.4645 31.3182 93.0884 30.4824ZM92.5414 36.7154C92.4211 36.7561 92.2977 36.7954 92.1719 36.8335C91.8934 35.9329 91.5177 34.9752 91.0579 33.9857C91.4966 33.0198 91.8579 32.0744 92.1285 31.1796C92.3536 31.2462 92.572 31.3163 92.7825 31.3903C94.8184 32.1065 96.0602 33.1652 96.0602 33.9811C96.0602 34.85 94.719 35.9781 92.5414 36.7154ZM91.6378 38.5449C91.858 39.6811 91.8894 40.7085 91.7435 41.5117C91.6126 42.2334 91.3491 42.7145 91.0232 42.9072C90.33 43.3173 88.8473 42.7843 87.2482 41.3783C87.0592 41.2117 86.8747 41.0399 86.6951 40.8628C87.315 40.1701 87.9345 39.3648 88.5392 38.4704C89.6028 38.374 90.6075 38.2163 91.5187 38.0011C91.5626 38.1813 91.6023 38.3627 91.6378 38.5449ZM82.5003 42.8364C81.8229 43.0807 81.2834 43.0878 80.9573 42.8956C80.2633 42.4867 79.9748 40.908 80.3683 38.7904C80.4151 38.5401 80.4687 38.2913 80.529 38.0441C81.4301 38.2478 82.4276 38.3943 83.4936 38.4826C84.1024 39.3578 84.7398 40.1622 85.3822 40.8666C85.2457 41.0016 85.1059 41.1331 84.9631 41.2611C84.1095 42.0234 83.2541 42.5643 82.5003 42.8364ZM79.327 36.7101C78.2542 36.3354 77.3683 35.8485 76.761 35.3172C76.2153 34.8398 75.9399 34.3657 75.9399 33.9811C75.9399 33.1625 77.1342 32.1185 79.1261 31.4089C79.3679 31.3228 79.6209 31.2416 79.8834 31.1654C80.1587 32.0804 80.5199 33.037 80.9556 34.0044C80.5142 34.9861 80.1479 35.9581 79.8699 36.8839C79.6876 36.8305 79.5065 36.7725 79.327 36.7101ZM80.3907 29.3113C79.9772 27.1523 80.2518 25.5237 80.9428 25.115C81.6788 24.6796 83.3063 25.3003 85.0217 26.8567C85.1335 26.9584 85.2436 27.0622 85.3518 27.168C84.7126 27.8693 84.081 28.6677 83.4776 29.5378C82.443 29.6357 81.4525 29.7931 80.5419 30.0039C80.4858 29.7744 80.4354 29.5434 80.3907 29.3113ZM89.8805 31.7057C89.6654 31.3261 89.4424 30.9512 89.2115 30.5815C89.9134 30.6722 90.586 30.7925 91.2175 30.9397C91.0279 31.5607 90.7916 32.2099 90.5134 32.8755C90.3101 32.4813 90.0991 32.0913 89.8805 31.7057ZM86.0106 27.8543C86.444 28.3342 86.8782 28.8699 87.3052 29.4512C86.439 29.4094 85.5713 29.4092 84.705 29.4506C85.1325 28.8747 85.5703 28.3397 86.0106 27.8543ZM82.1158 31.7123C81.9 32.0947 81.6929 32.4823 81.4947 32.8747C81.2211 32.2115 80.9869 31.5593 80.7957 30.9295C81.4234 30.786 82.0928 30.6687 82.7902 30.5797C82.5568 30.9517 82.3319 31.3294 82.1158 31.7123ZM82.8103 37.4508C82.0897 37.3686 81.4103 37.2573 80.7827 37.1177C80.977 36.4767 81.2163 35.8107 81.4958 35.1332C81.6948 35.5259 81.9027 35.9137 82.1195 36.2963C82.3424 36.6897 82.5732 37.075 82.8103 37.4508ZM86.0365 40.1755C85.591 39.6844 85.1467 39.1412 84.7128 38.5569C85.1341 38.5737 85.5635 38.5824 86 38.5824C86.4484 38.5824 86.8917 38.5721 87.328 38.5522C86.8996 39.1471 86.4671 39.6911 86.0365 40.1755ZM90.5223 35.0986C90.8164 35.7835 91.0642 36.446 91.261 37.0761C90.6232 37.2248 89.9345 37.3446 89.2088 37.4335C89.4413 37.0569 89.6665 36.6756 89.8842 36.2897C90.1055 35.8976 90.3183 35.5004 90.5223 35.0986ZM89.0701 35.81C88.7369 36.4015 88.3849 36.9818 88.0147 37.5499C87.3442 37.5984 86.6722 37.6225 86 37.6222C85.3153 37.6222 84.6494 37.6004 84.0081 37.5579C83.6283 36.9911 83.2696 36.4098 82.9328 35.8152C82.5976 35.2238 82.2845 34.6197 81.9942 34.004C82.2838 33.3882 82.596 32.7837 82.9301 32.1919L82.93 32.192C83.2639 31.6 83.6198 31.0212 83.9967 30.4568C84.651 30.4062 85.3219 30.3798 85.9999 30.3798C86.6811 30.3798 87.3529 30.4064 88.007 30.4574C88.3801 31.0209 88.7337 31.5977 89.067 32.1868C89.4022 32.7773 89.7185 33.3788 90.0154 33.9904C89.7216 34.6082 89.4063 35.2151 89.0701 35.81ZM91.0089 25.0864C91.7455 25.5205 92.032 27.2711 91.5692 29.5669C91.5396 29.7134 91.5064 29.8626 91.4704 30.0139C90.5575 29.7985 89.5664 29.6385 88.5287 29.539C87.9242 28.6594 87.2978 27.8597 86.669 27.1674C86.8338 27.0051 87.0025 26.847 87.175 26.6933C88.7992 25.2491 90.3172 24.6788 91.0089 25.0864ZM86 31.9738C87.085 31.9738 87.9645 32.8725 87.9645 33.9811C87.9645 35.0897 87.085 35.9884 86 35.9884C84.915 35.9884 84.0355 35.0897 84.0355 33.9811C84.0355 32.8725 84.915 31.9738 86 31.9738Z" fill="#00D8FF"/>
<path d="M10.7891 38V30H13.7891C14.4036 30 14.9193 30.1068 15.3359 30.3203C15.7552 30.5339 16.0716 30.8333 16.2852 31.2187C16.5013 31.6016 16.6094 32.0482 16.6094 32.5586C16.6094 33.0716 16.5 33.5169 16.2813 33.8945C16.0651 34.2695 15.7461 34.5599 15.3242 34.7656C14.9023 34.9687 14.3841 35.0703 13.7695 35.0703H11.6328V33.8672H13.5742C13.9336 33.8672 14.2279 33.8177 14.457 33.7187C14.6862 33.6172 14.8555 33.4701 14.9648 33.2773C15.0768 33.082 15.1328 32.8424 15.1328 32.5586C15.1328 32.2747 15.0768 32.0326 14.9648 31.832C14.8529 31.6289 14.6823 31.4753 14.4531 31.3711C14.224 31.2643 13.9284 31.2109 13.5664 31.2109H12.2383V38H10.7891ZM14.9219 34.375L16.9023 38H15.2852L13.3398 34.375H14.9219ZM20.4512 38.1172C19.8496 38.1172 19.3301 37.9922 18.8926 37.7422C18.4577 37.4896 18.123 37.1328 17.8887 36.6719C17.6543 36.2083 17.5371 35.6628 17.5371 35.0352C17.5371 34.418 17.6543 33.8763 17.8887 33.4102C18.1257 32.9414 18.4564 32.5768 18.8809 32.3164C19.3053 32.0534 19.804 31.9219 20.377 31.9219C20.7467 31.9219 21.0957 31.9818 21.4238 32.1016C21.7546 32.2187 22.0462 32.401 22.2988 32.6484C22.554 32.8958 22.7546 33.2109 22.9004 33.5937C23.0462 33.974 23.1191 34.4271 23.1191 34.9531V35.3867H18.2012V34.4336H21.7637C21.7611 34.1628 21.7025 33.9219 21.5879 33.7109C21.4733 33.4974 21.3132 33.3294 21.1074 33.207C20.9043 33.0846 20.6673 33.0234 20.3965 33.0234C20.1074 33.0234 19.8535 33.0937 19.6348 33.2344C19.416 33.3724 19.2454 33.5547 19.123 33.7812C19.0033 34.0052 18.9421 34.2513 18.9395 34.5195V35.3516C18.9395 35.7005 19.0033 36 19.1309 36.25C19.2585 36.4974 19.4368 36.6875 19.666 36.8203C19.8952 36.9505 20.1634 37.0156 20.4707 37.0156C20.6764 37.0156 20.8626 36.987 21.0293 36.9297C21.196 36.8698 21.3405 36.7826 21.4629 36.668C21.5853 36.5534 21.6777 36.4115 21.7402 36.2422L23.0605 36.3906C22.9772 36.7396 22.8184 37.0443 22.584 37.3047C22.3522 37.5625 22.0553 37.763 21.6934 37.9062C21.3314 38.0469 20.9173 38.1172 20.4512 38.1172ZM26.042 38.1211C25.6618 38.1211 25.3193 38.0534 25.0146 37.918C24.7126 37.7799 24.473 37.5768 24.2959 37.3086C24.1214 37.0404 24.0342 36.7096 24.0342 36.3164C24.0342 35.9779 24.0967 35.6979 24.2217 35.4766C24.3467 35.2552 24.5173 35.0781 24.7334 34.9453C24.9495 34.8125 25.193 34.7122 25.4639 34.6445C25.7373 34.5742 26.0199 34.5234 26.3115 34.4922C26.6631 34.4557 26.9482 34.4232 27.167 34.3945C27.3857 34.3633 27.5446 34.3164 27.6436 34.2539C27.7451 34.1888 27.7959 34.0885 27.7959 33.9531V33.9297C27.7959 33.6354 27.7087 33.4076 27.5342 33.2461C27.3597 33.0846 27.1084 33.0039 26.7803 33.0039C26.4339 33.0039 26.1592 33.0794 25.9561 33.2305C25.7555 33.3815 25.6201 33.5599 25.5498 33.7656L24.2295 33.5781C24.3337 33.2135 24.5055 32.9089 24.7451 32.6641C24.9847 32.4167 25.2777 32.2318 25.624 32.1094C25.9704 31.9844 26.3532 31.9219 26.7725 31.9219C27.0615 31.9219 27.3493 31.9557 27.6357 32.0234C27.9222 32.0911 28.1839 32.2031 28.4209 32.3594C28.6579 32.513 28.848 32.7227 28.9912 32.9883C29.137 33.2539 29.21 33.5859 29.21 33.9844V38H27.8506V37.1758H27.8037C27.7178 37.3424 27.5967 37.4987 27.4404 37.6445C27.2868 37.7878 27.0928 37.9036 26.8584 37.9922C26.6266 38.0781 26.3545 38.1211 26.042 38.1211ZM26.4092 37.082C26.693 37.082 26.9391 37.026 27.1475 36.9141C27.3558 36.7995 27.516 36.6484 27.6279 36.4609C27.7425 36.2734 27.7998 36.069 27.7998 35.8477V35.1406C27.7555 35.1771 27.68 35.2109 27.5732 35.2422C27.4691 35.2734 27.3519 35.3008 27.2217 35.3242C27.0915 35.3477 26.9626 35.3685 26.835 35.3867C26.7074 35.4049 26.5967 35.4206 26.5029 35.4336C26.292 35.4622 26.1032 35.5091 25.9365 35.5742C25.7699 35.6393 25.6383 35.7305 25.542 35.8477C25.4456 35.9622 25.3975 36.1107 25.3975 36.293C25.3975 36.5534 25.4925 36.75 25.6826 36.8828C25.8727 37.0156 26.1149 37.082 26.4092 37.082ZM33.249 38.1172C32.6501 38.1172 32.1357 37.9857 31.7061 37.7227C31.279 37.4596 30.9495 37.0964 30.7178 36.6328C30.4886 36.1667 30.374 35.6302 30.374 35.0234C30.374 34.4141 30.4912 33.8763 30.7256 33.4102C30.96 32.9414 31.2907 32.5768 31.7178 32.3164C32.1475 32.0534 32.6553 31.9219 33.2412 31.9219C33.7282 31.9219 34.1592 32.0117 34.5342 32.1914C34.9118 32.3685 35.2126 32.6198 35.4365 32.9453C35.6605 33.2682 35.7881 33.6458 35.8193 34.0781H34.4678C34.4131 33.7891 34.2829 33.5482 34.0771 33.3555C33.874 33.1602 33.6019 33.0625 33.2607 33.0625C32.9717 33.0625 32.7178 33.1406 32.499 33.2969C32.2803 33.4505 32.1097 33.6719 31.9873 33.9609C31.8675 34.25 31.8076 34.5964 31.8076 35C31.8076 35.4089 31.8675 35.7604 31.9873 36.0547C32.1071 36.3464 32.2751 36.5716 32.4912 36.7305C32.71 36.8867 32.9665 36.9648 33.2607 36.9648C33.4691 36.9648 33.6553 36.9258 33.8193 36.8477C33.986 36.7669 34.1253 36.651 34.2373 36.5C34.3493 36.349 34.4261 36.1654 34.4678 35.9492H35.8193C35.7855 36.3737 35.6605 36.75 35.4443 37.0781C35.2282 37.4036 34.9339 37.6589 34.5615 37.8437C34.1891 38.026 33.7516 38.1172 33.249 38.1172ZM39.9766 32V33.0937H36.5273V32H39.9766ZM37.3789 30.5625H38.793V36.1953C38.793 36.3854 38.8216 36.5313 38.8789 36.6328C38.9388 36.7318 39.0169 36.7995 39.1133 36.8359C39.2096 36.8724 39.3164 36.8906 39.4336 36.8906C39.5221 36.8906 39.6029 36.8841 39.6758 36.8711C39.7513 36.8581 39.8086 36.8464 39.8477 36.8359L40.0859 37.9414C40.0104 37.9674 39.9023 37.9961 39.7617 38.0273C39.6237 38.0586 39.4544 38.0768 39.2539 38.082C38.8997 38.0924 38.5807 38.0391 38.2969 37.9219C38.013 37.8021 37.7878 37.6172 37.6211 37.3672C37.457 37.1172 37.3763 36.8047 37.3789 36.4297V30.5625ZM47.1064 30H48.5439V35.625C48.5413 36.1406 48.432 36.5846 48.2158 36.957C47.9997 37.3268 47.6976 37.612 47.3096 37.8125C46.9242 38.0104 46.4749 38.1094 45.9619 38.1094C45.4932 38.1094 45.0713 38.026 44.6963 37.8594C44.3239 37.6901 44.0283 37.4401 43.8096 37.1094C43.5908 36.7786 43.4814 36.3672 43.4814 35.875H44.9229C44.9255 36.0911 44.9723 36.2773 45.0635 36.4336C45.1572 36.5898 45.2861 36.7096 45.4502 36.793C45.6143 36.8763 45.8031 36.918 46.0166 36.918C46.2484 36.918 46.445 36.8698 46.6064 36.7734C46.7679 36.6745 46.8903 36.5286 46.9736 36.3359C47.0596 36.1432 47.1038 35.9062 47.1064 35.625V30ZM54.4639 32.1992C54.4274 31.8581 54.2738 31.5924 54.0029 31.4023C53.7347 31.2122 53.3857 31.1172 52.9561 31.1172C52.654 31.1172 52.3949 31.1628 52.1787 31.2539C51.9626 31.3451 51.7972 31.4687 51.6826 31.625C51.568 31.7812 51.5094 31.9596 51.5068 32.1602C51.5068 32.3268 51.5446 32.4714 51.6201 32.5937C51.6982 32.7161 51.8037 32.8203 51.9365 32.9062C52.0693 32.9896 52.2165 33.0599 52.3779 33.1172C52.5394 33.1745 52.7021 33.2227 52.8662 33.2617L53.6162 33.4492C53.9183 33.5195 54.2087 33.6146 54.4873 33.7344C54.7686 33.8542 55.0199 34.0052 55.2412 34.1875C55.4652 34.3698 55.6423 34.5898 55.7725 34.8477C55.9027 35.1055 55.9678 35.4076 55.9678 35.7539C55.9678 36.2227 55.848 36.6354 55.6084 36.9922C55.3688 37.3464 55.0225 37.6237 54.5693 37.8242C54.1188 38.0221 53.5732 38.1211 52.9326 38.1211C52.3102 38.1211 51.7699 38.0247 51.3115 37.832C50.8558 37.6393 50.499 37.3581 50.2412 36.9883C49.986 36.6185 49.848 36.168 49.8271 35.6367H51.2529C51.2738 35.9154 51.3597 36.1471 51.5107 36.332C51.6618 36.5169 51.8584 36.6549 52.1006 36.7461C52.3454 36.8372 52.6188 36.8828 52.9209 36.8828C53.236 36.8828 53.512 36.8359 53.749 36.7422C53.9886 36.6458 54.1761 36.513 54.3115 36.3437C54.4469 36.1719 54.516 35.9714 54.5186 35.7422C54.516 35.5339 54.4548 35.362 54.335 35.2266C54.2152 35.0885 54.0472 34.974 53.8311 34.8828C53.6175 34.7891 53.3675 34.7057 53.0811 34.6328L52.1709 34.3984C51.512 34.2292 50.9912 33.9727 50.6084 33.6289C50.2282 33.2826 50.0381 32.8229 50.0381 32.25C50.0381 31.7786 50.1657 31.3659 50.4209 31.0117C50.6787 30.6576 51.029 30.3828 51.4717 30.1875C51.9144 29.9896 52.4157 29.8906 52.9756 29.8906C53.5433 29.8906 54.0407 29.9896 54.4678 30.1875C54.8975 30.3828 55.2347 30.6549 55.4795 31.0039C55.7243 31.3503 55.8506 31.7487 55.8584 32.1992H54.4639Z" fill="#EFF6F7"/>
<line x1="65.1" y1="19" x2="65.1" y2="49" stroke="white" stroke-width="0.2"/>
</svg>
