<svg width="122" height="69" viewBox="0 0 122 69" fill="none" xmlns="http://www.w3.org/2000/svg">
<rect width="122" height="69" fill="#343E51"/>
<path d="M70.6591 29.6364C70.6591 30.5767 70.483 31.3821 70.1307 32.0526C69.7813 32.7202 69.304 33.2315 68.6989 33.5866C68.0966 33.9418 67.4134 34.1193 66.6491 34.1193C65.8849 34.1193 65.2003 33.9418 64.5952 33.5866C63.9929 33.2287 63.5156 32.7159 63.1634 32.0483C62.8139 31.3778 62.6392 30.5739 62.6392 29.6364C62.6392 28.696 62.8139 27.892 63.1634 27.2244C63.5156 26.554 63.9929 26.0412 64.5952 25.6861C65.2003 25.331 65.8849 25.1534 66.6491 25.1534C67.4134 25.1534 68.0966 25.331 68.6989 25.6861C69.304 26.0412 69.7813 26.554 70.1307 27.2244C70.483 27.892 70.6591 28.696 70.6591 29.6364ZM69.0696 29.6364C69.0696 28.9744 68.9659 28.4162 68.7585 27.9616C68.554 27.5043 68.2699 27.1591 67.9062 26.9261C67.5426 26.6903 67.1236 26.5724 66.6491 26.5724C66.1747 26.5724 65.7557 26.6903 65.392 26.9261C65.0284 27.1591 64.7429 27.5043 64.5355 27.9616C64.331 28.4162 64.2287 28.9744 64.2287 29.6364C64.2287 30.2983 64.331 30.858 64.5355 31.3153C64.7429 31.7699 65.0284 32.1151 65.392 32.3509C65.7557 32.5838 66.1747 32.7003 66.6491 32.7003C67.1236 32.7003 67.5426 32.5838 67.9062 32.3509C68.2699 32.1151 68.554 31.7699 68.7585 31.3153C68.9659 30.858 69.0696 30.2983 69.0696 29.6364ZM72.0856 34V27.4545H73.5813V28.5455H73.6495C73.7688 28.1676 73.9734 27.8764 74.2631 27.6719C74.5558 27.4645 74.8896 27.3608 75.2646 27.3608C75.3498 27.3608 75.445 27.3651 75.5501 27.3736C75.658 27.3793 75.7475 27.3892 75.8185 27.4034V28.8224C75.7532 28.7997 75.6495 28.7798 75.5075 28.7628C75.3683 28.7429 75.2333 28.733 75.1026 28.733C74.8214 28.733 74.5685 28.794 74.3441 28.9162C74.1225 29.0355 73.9478 29.2017 73.82 29.4148C73.6921 29.6278 73.6282 29.8736 73.6282 30.152V34H72.0856ZM79.4205 36.5909C78.8665 36.5909 78.3906 36.5156 77.9929 36.3651C77.5952 36.2173 77.2756 36.0185 77.0341 35.7685C76.7926 35.5185 76.625 35.2415 76.5312 34.9375L77.9205 34.6009C77.983 34.7287 78.0739 34.8551 78.1932 34.9801C78.3125 35.108 78.473 35.2131 78.6747 35.2955C78.8793 35.3807 79.1364 35.4233 79.446 35.4233C79.8835 35.4233 80.2457 35.3168 80.5327 35.1037C80.8196 34.8935 80.9631 34.5469 80.9631 34.0639V32.8239H80.8864C80.8068 32.983 80.6903 33.1463 80.5369 33.3139C80.3864 33.4815 80.1861 33.6222 79.9361 33.7358C79.6889 33.8494 79.3778 33.9062 79.0028 33.9062C78.5 33.9062 78.044 33.7884 77.6349 33.5526C77.2287 33.3139 76.9048 32.9588 76.6634 32.4872C76.4247 32.0128 76.3054 31.419 76.3054 30.706C76.3054 29.9872 76.4247 29.3807 76.6634 28.8864C76.9048 28.3892 77.2301 28.0128 77.6392 27.7571C78.0483 27.4986 78.5043 27.3693 79.0071 27.3693C79.3906 27.3693 79.706 27.4347 79.9531 27.5653C80.2031 27.6932 80.402 27.848 80.5497 28.0298C80.6974 28.2088 80.8097 28.3778 80.8864 28.5369H80.9716V27.4545H82.4929V34.1065C82.4929 34.6662 82.3594 35.1293 82.0923 35.4957C81.8253 35.8622 81.4602 36.1364 80.9972 36.3182C80.5341 36.5 80.0085 36.5909 79.4205 36.5909ZM79.4332 32.696C79.7599 32.696 80.0384 32.6165 80.2685 32.4574C80.4986 32.2983 80.6733 32.0696 80.7926 31.7713C80.9119 31.473 80.9716 31.1151 80.9716 30.6974C80.9716 30.2855 80.9119 29.9247 80.7926 29.6151C80.6761 29.3054 80.5028 29.0653 80.2727 28.8949C80.0455 28.7216 79.7656 28.6349 79.4332 28.6349C79.0895 28.6349 78.8026 28.7244 78.5724 28.9034C78.3423 29.0824 78.169 29.3281 78.0526 29.6406C77.9361 29.9503 77.8778 30.3026 77.8778 30.6974C77.8778 31.098 77.9361 31.4489 78.0526 31.75C78.1719 32.0483 78.3466 32.2812 78.5767 32.4489C78.8097 32.6136 79.0952 32.696 79.4332 32.696ZM85.9574 34.1321C85.5426 34.1321 85.169 34.0582 84.8366 33.9105C84.5071 33.7599 84.2457 33.5384 84.0526 33.2457C83.8622 32.9531 83.767 32.5923 83.767 32.1634C83.767 31.794 83.8352 31.4886 83.9716 31.2472C84.108 31.0057 84.294 30.8125 84.5298 30.6676C84.7656 30.5227 85.0313 30.4134 85.3267 30.3395C85.625 30.2628 85.9332 30.2074 86.2514 30.1733C86.6349 30.1335 86.946 30.098 87.1847 30.0668C87.4233 30.0327 87.5966 29.9815 87.7045 29.9134C87.8153 29.8423 87.8707 29.733 87.8707 29.5852V29.5597C87.8707 29.2386 87.7756 28.9901 87.5852 28.8139C87.3949 28.6378 87.1207 28.5497 86.7628 28.5497C86.3849 28.5497 86.0852 28.6321 85.8636 28.7969C85.6449 28.9616 85.4972 29.1562 85.4205 29.3807L83.9801 29.1761C84.0938 28.7784 84.2813 28.446 84.5426 28.179C84.804 27.9091 85.1236 27.7074 85.5014 27.5739C85.8793 27.4375 86.2969 27.3693 86.7543 27.3693C87.0696 27.3693 87.3835 27.4062 87.696 27.4801C88.0085 27.554 88.294 27.6761 88.5526 27.8466C88.8111 28.0142 89.0185 28.2429 89.1747 28.5327C89.3338 28.8224 89.4134 29.1847 89.4134 29.6193V34H87.9304V33.1009H87.8793C87.7855 33.2827 87.6534 33.4531 87.483 33.6122C87.3153 33.7685 87.1037 33.8949 86.848 33.9915C86.5952 34.0852 86.2983 34.1321 85.9574 34.1321ZM86.358 32.9986C86.6676 32.9986 86.9361 32.9375 87.1634 32.8153C87.3906 32.6903 87.5653 32.5256 87.6875 32.321C87.8125 32.1165 87.875 31.8935 87.875 31.652V30.8807C87.8267 30.9205 87.7443 30.9574 87.6278 30.9915C87.5142 31.0256 87.3864 31.0554 87.2443 31.081C87.1023 31.1065 86.9616 31.1293 86.8224 31.1491C86.6832 31.169 86.5625 31.1861 86.4602 31.2003C86.2301 31.2315 86.0241 31.2827 85.8423 31.3537C85.6605 31.4247 85.517 31.5241 85.4119 31.652C85.3068 31.777 85.2543 31.9389 85.2543 32.1378C85.2543 32.4219 85.358 32.6364 85.5653 32.7812C85.7727 32.9261 86.0369 32.9986 86.358 32.9986ZM92.5071 30.1648V34H90.9645V27.4545H92.4389V28.5668H92.5156C92.6662 28.2003 92.9063 27.9091 93.2358 27.6932C93.5682 27.4773 93.9787 27.3693 94.4673 27.3693C94.919 27.3693 95.3125 27.4659 95.6477 27.6591C95.9858 27.8523 96.2472 28.1321 96.4318 28.4986C96.6193 28.8651 96.7116 29.3097 96.7088 29.8324V34H95.1662V30.071C95.1662 29.6335 95.0526 29.2912 94.8253 29.044C94.6009 28.7969 94.2898 28.6733 93.892 28.6733C93.6222 28.6733 93.3821 28.733 93.1719 28.8523C92.9645 28.9687 92.8011 29.1378 92.6818 29.3594C92.5653 29.581 92.5071 29.8494 92.5071 30.1648ZM98.277 34V27.4545H99.8196V34H98.277ZM99.0526 26.5256C98.8082 26.5256 98.598 26.4446 98.4219 26.2827C98.2457 26.1179 98.1577 25.9205 98.1577 25.6903C98.1577 25.4574 98.2457 25.2599 98.4219 25.098C98.598 24.9332 98.8082 24.8509 99.0526 24.8509C99.2997 24.8509 99.5099 24.9332 99.6832 25.098C99.8594 25.2599 99.9474 25.4574 99.9474 25.6903C99.9474 25.9205 99.8594 26.1179 99.6832 26.2827C99.5099 26.4446 99.2997 26.5256 99.0526 26.5256ZM101.321 34V33.0199L104.696 28.7884V28.733H101.431V27.4545H106.583V28.5071L103.37 32.6662V32.7216H106.694V34H101.321ZM110.854 34.1278C110.198 34.1278 109.631 33.9915 109.154 33.7188C108.68 33.4432 108.315 33.054 108.059 32.5511C107.803 32.0455 107.675 31.4503 107.675 30.7656C107.675 30.0923 107.803 29.5014 108.059 28.9929C108.317 28.4815 108.678 28.0838 109.141 27.7997C109.604 27.5128 110.148 27.3693 110.773 27.3693C111.177 27.3693 111.558 27.4347 111.915 27.5653C112.276 27.6932 112.594 27.892 112.87 28.1619C113.148 28.4318 113.367 28.7756 113.526 29.1932C113.685 29.608 113.765 30.1023 113.765 30.6761V31.1491H108.4V30.1094H112.286C112.283 29.8139 112.219 29.5511 112.094 29.321C111.969 29.0881 111.795 28.9048 111.57 28.7713C111.349 28.6378 111.09 28.571 110.795 28.571C110.479 28.571 110.202 28.6477 109.964 28.8011C109.725 28.9517 109.539 29.1506 109.406 29.3977C109.275 29.642 109.208 29.9105 109.205 30.2031V31.1108C109.205 31.4915 109.275 31.8182 109.414 32.0909C109.553 32.3608 109.748 32.5682 109.998 32.7131C110.248 32.8551 110.54 32.9261 110.876 32.9261C111.1 32.9261 111.303 32.8949 111.485 32.8324C111.667 32.767 111.825 32.6719 111.958 32.5469C112.092 32.4219 112.192 32.267 112.261 32.0824L113.701 32.2443C113.61 32.625 113.437 32.9574 113.181 33.2415C112.928 33.5227 112.604 33.7415 112.21 33.8977C111.815 34.0511 111.363 34.1278 110.854 34.1278Z" fill="white"/>
<path d="M62.5739 44V38.1818H66.3011V39.0653H63.6278V40.6449H66.0455V41.5284H63.6278V44H62.5739ZM67.2159 44V39.6364H68.2443V44H67.2159ZM67.733 39.017C67.5701 39.017 67.4299 38.9631 67.3125 38.8551C67.1951 38.7453 67.1364 38.6136 67.1364 38.4602C67.1364 38.3049 67.1951 38.1733 67.3125 38.0653C67.4299 37.9555 67.5701 37.9006 67.733 37.9006C67.8977 37.9006 68.0379 37.9555 68.1534 38.0653C68.2708 38.1733 68.3295 38.3049 68.3295 38.4602C68.3295 38.6136 68.2708 38.7453 68.1534 38.8551C68.0379 38.9631 67.8977 39.017 67.733 39.017ZM70.3303 38.1818V44H69.3018V38.1818H70.3303ZM73.3196 44.0852C72.8821 44.0852 72.5043 43.9943 72.1861 43.8125C71.8698 43.6288 71.6264 43.3693 71.456 43.0341C71.2855 42.697 71.2003 42.3002 71.2003 41.8438C71.2003 41.3949 71.2855 41.0009 71.456 40.6619C71.6283 40.321 71.8688 40.0559 72.1776 39.8665C72.4863 39.6752 72.849 39.5795 73.2656 39.5795C73.5346 39.5795 73.7884 39.6231 74.027 39.7102C74.2675 39.7955 74.4796 39.928 74.6634 40.108C74.849 40.2879 74.9948 40.517 75.1009 40.7955C75.2069 41.072 75.2599 41.4015 75.2599 41.7841V42.0994H71.6832V41.4062H74.2741C74.2723 41.2093 74.2296 41.0341 74.1463 40.8807C74.063 40.7254 73.9465 40.6032 73.7969 40.5142C73.6491 40.4252 73.4768 40.3807 73.2798 40.3807C73.0696 40.3807 72.8849 40.4318 72.7259 40.5341C72.5668 40.6345 72.4427 40.767 72.3537 40.9318C72.2666 41.0947 72.2221 41.2737 72.2202 41.4688V42.0739C72.2202 42.3277 72.2666 42.5455 72.3594 42.7273C72.4522 42.9072 72.5819 43.0455 72.7486 43.142C72.9152 43.2367 73.1103 43.2841 73.3338 43.2841C73.4834 43.2841 73.6188 43.2633 73.7401 43.2216C73.8613 43.178 73.9664 43.1146 74.0554 43.0312C74.1444 42.9479 74.2116 42.8447 74.2571 42.7216L75.2173 42.8295C75.1567 43.0833 75.0412 43.3049 74.8707 43.4943C74.7022 43.6818 74.4863 43.8277 74.223 43.9318C73.9598 44.0341 73.6586 44.0852 73.3196 44.0852ZM79.5788 40.7898L78.6413 40.892C78.6148 40.7973 78.5684 40.7083 78.5021 40.625C78.4377 40.5417 78.3506 40.4744 78.2408 40.4233C78.1309 40.3722 77.9964 40.3466 77.8374 40.3466C77.6233 40.3466 77.4434 40.393 77.2976 40.4858C77.1536 40.5786 77.0826 40.6989 77.0845 40.8466C77.0826 40.9735 77.129 41.0767 77.2237 41.1562C77.3203 41.2358 77.4794 41.3011 77.701 41.3523L78.4453 41.5114C78.8582 41.6004 79.165 41.7415 79.3658 41.9347C79.5684 42.1278 79.6707 42.3807 79.6726 42.6932C79.6707 42.9678 79.5902 43.2102 79.4311 43.4205C79.2739 43.6288 79.0552 43.7917 78.7749 43.9091C78.4946 44.0265 78.1726 44.0852 77.8089 44.0852C77.2749 44.0852 76.8449 43.9735 76.5192 43.75C76.1934 43.5246 75.9993 43.2112 75.9368 42.8097L76.9396 42.7131C76.9851 42.91 77.0817 43.0587 77.2294 43.1591C77.3771 43.2595 77.5694 43.3097 77.8061 43.3097C78.0504 43.3097 78.2464 43.2595 78.3942 43.1591C78.5438 43.0587 78.6186 42.9347 78.6186 42.7869C78.6186 42.6619 78.5703 42.5587 78.4737 42.4773C78.379 42.3958 78.2313 42.3333 78.0305 42.2898L77.2862 42.1335C76.8677 42.0464 76.558 41.8996 76.3572 41.6932C76.1565 41.4848 76.0571 41.2216 76.0589 40.9034C76.0571 40.6345 76.13 40.4015 76.2777 40.2045C76.4273 40.0057 76.6347 39.8523 76.8999 39.7443C77.1669 39.6345 77.4747 39.5795 77.8232 39.5795C78.3345 39.5795 78.737 39.6884 79.0305 39.9062C79.326 40.1241 79.5088 40.4186 79.5788 40.7898Z" fill="#E2E2E2"/>
<line x1="53.9" y1="49" x2="53.9" y2="19" stroke="white" stroke-width="0.2"/>
<path d="M26.7721 33.5656L24 37.9763V29.8571C24 28.8328 24.8969 28 26.0001 28H29.6722C30.2035 28 30.7129 28.1944 31.088 28.5426L31.9161 29.3116C32.2912 29.6598 32.8006 29.8542 33.3319 29.8542L37.0008 29.8571C38.104 29.8571 39.001 30.69 39.001 31.7143V32.6429H28.5003C27.7877 32.6429 27.1315 32.994 26.7721 33.5656ZM27.6346 34.0328C27.8159 33.7455 28.144 33.5714 28.5003 33.5714H41.0011C41.3605 33.5714 41.6886 33.7484 41.8668 34.0386C42.0449 34.3288 42.0449 34.6828 41.8637 34.9701L38.3634 40.5415C38.1853 40.8259 37.8572 41 37.5009 41H25.0001C24.6407 41 24.3125 40.823 24.1344 40.5328C23.9562 40.2426 23.9562 39.8886 24.1375 39.6013L27.6377 34.0299L27.6346 34.0328Z" fill="#9B7449"/>
</svg>
