<svg width="122" height="69" viewBox="0 0 122 69" fill="none" xmlns="http://www.w3.org/2000/svg">
<path d="M0 0H122V69H0V0Z" fill="#343E51"/>
<path d="M41.0884 30.4824C40.8543 30.4003 40.6181 30.3243 40.3803 30.2544C40.4202 30.0875 40.457 29.9227 40.4897 29.7608C41.0257 27.1018 40.6753 24.9597 39.4783 24.2545C38.3306 23.5783 36.4536 24.2833 34.558 25.969C34.3712 26.1354 34.1885 26.3067 34.0101 26.4825C33.8907 26.3656 33.7692 26.2509 33.6457 26.1386C31.659 24.3362 29.6676 23.5766 28.4719 24.2839C27.3252 24.9621 26.9857 26.9758 27.4683 29.4958C27.5163 29.7454 27.5706 29.9936 27.6309 30.2404C27.349 30.3222 27.077 30.4093 26.8167 30.5021C24.4875 31.3319 23 32.6322 23 33.9811C23 35.3742 24.5969 36.7715 27.0229 37.6187C27.2196 37.6871 27.4179 37.7505 27.6177 37.8088C27.5528 38.0746 27.4952 38.3422 27.4449 38.6112C26.9848 41.0875 27.3441 43.0536 28.4877 43.7275C29.6688 44.4235 31.6512 43.7082 33.5815 41.9841C33.738 41.8439 33.8911 41.6998 34.0406 41.5518C34.2337 41.7422 34.432 41.9271 34.6353 42.1062C36.5051 43.7502 38.3517 44.414 39.4942 43.7382C40.6742 43.0402 41.0577 40.9281 40.5598 38.3584C40.5206 38.157 40.4766 37.9567 40.4279 37.7576C40.5671 37.7154 40.7037 37.672 40.8369 37.6269C43.359 36.7731 45 35.3928 45 33.9811C45 32.6273 43.4645 31.3182 41.0884 30.4824ZM40.5414 36.7154C40.4211 36.7561 40.2977 36.7954 40.1719 36.8335C39.8934 35.9329 39.5177 34.9752 39.0579 33.9857C39.4966 33.0198 39.8579 32.0744 40.1285 31.1796C40.3536 31.2462 40.572 31.3163 40.7825 31.3903C42.8184 32.1065 44.0602 33.1652 44.0602 33.9811C44.0602 34.85 42.719 35.9781 40.5414 36.7154ZM39.6378 38.5449C39.858 39.6811 39.8894 40.7085 39.7435 41.5117C39.6126 42.2334 39.3491 42.7145 39.0232 42.9072C38.33 43.3173 36.8473 42.7843 35.2482 41.3783C35.0592 41.2117 34.8747 41.0399 34.6951 40.8628C35.315 40.1701 35.9345 39.3648 36.5392 38.4704C37.6028 38.374 38.6075 38.2163 39.5187 38.0011C39.5626 38.1813 39.6023 38.3627 39.6378 38.5449ZM30.5003 42.8364C29.8229 43.0807 29.2834 43.0878 28.9573 42.8956C28.2633 42.4867 27.9748 40.908 28.3683 38.7904C28.4151 38.5401 28.4687 38.2913 28.529 38.0441C29.4301 38.2478 30.4276 38.3943 31.4936 38.4826C32.1024 39.3578 32.7398 40.1622 33.3822 40.8666C33.2457 41.0016 33.1059 41.1331 32.9631 41.2611C32.1095 42.0234 31.2541 42.5643 30.5003 42.8364ZM27.327 36.7101C26.2542 36.3354 25.3683 35.8485 24.761 35.3172C24.2153 34.8398 23.9399 34.3657 23.9399 33.9811C23.9399 33.1625 25.1342 32.1185 27.1261 31.4089C27.3679 31.3228 27.6209 31.2416 27.8834 31.1654C28.1587 32.0804 28.5199 33.037 28.9556 34.0044C28.5142 34.9861 28.1479 35.9581 27.8699 36.8839C27.6876 36.8305 27.5065 36.7725 27.327 36.7101ZM28.3907 29.3113C27.9772 27.1523 28.2518 25.5237 28.9428 25.115C29.6788 24.6796 31.3063 25.3003 33.0217 26.8567C33.1335 26.9584 33.2436 27.0622 33.3518 27.168C32.7126 27.8693 32.081 28.6677 31.4776 29.5378C30.443 29.6357 29.4525 29.7931 28.5419 30.0039C28.4858 29.7744 28.4354 29.5434 28.3907 29.3113ZM37.8805 31.7057C37.6654 31.3261 37.4424 30.9512 37.2115 30.5815C37.9134 30.6722 38.586 30.7925 39.2175 30.9397C39.0279 31.5607 38.7916 32.2099 38.5134 32.8755C38.3101 32.4813 38.0991 32.0913 37.8805 31.7057ZM34.0106 27.8543C34.444 28.3342 34.8782 28.8699 35.3052 29.4512C34.439 29.4094 33.5713 29.4092 32.705 29.4506C33.1325 28.8747 33.5703 28.3397 34.0106 27.8543ZM30.1158 31.7123C29.9 32.0947 29.6929 32.4823 29.4947 32.8747C29.2211 32.2115 28.9869 31.5593 28.7957 30.9295C29.4234 30.786 30.0928 30.6687 30.7902 30.5797C30.5568 30.9517 30.3319 31.3294 30.1158 31.7123ZM30.8103 37.4508C30.0897 37.3686 29.4103 37.2573 28.7827 37.1177C28.977 36.4767 29.2163 35.8107 29.4958 35.1332C29.6948 35.5259 29.9027 35.9137 30.1195 36.2963C30.3424 36.6897 30.5732 37.075 30.8103 37.4508ZM34.0365 40.1755C33.591 39.6844 33.1467 39.1412 32.7128 38.5569C33.1341 38.5737 33.5635 38.5824 34 38.5824C34.4484 38.5824 34.8917 38.5721 35.328 38.5522C34.8996 39.1471 34.4671 39.6911 34.0365 40.1755ZM38.5223 35.0986C38.8164 35.7835 39.0642 36.446 39.261 37.0761C38.6232 37.2248 37.9345 37.3446 37.2088 37.4335C37.4413 37.0569 37.6665 36.6756 37.8842 36.2897C38.1055 35.8976 38.3183 35.5004 38.5223 35.0986ZM37.0701 35.81C36.7369 36.4015 36.3849 36.9818 36.0147 37.5499C35.3442 37.5984 34.6722 37.6225 34 37.6222C33.3153 37.6222 32.6494 37.6004 32.0081 37.5579C31.6283 36.9911 31.2696 36.4098 30.9328 35.8152C30.5976 35.2238 30.2845 34.6197 29.9942 34.004C30.2838 33.3882 30.596 32.7837 30.9301 32.1919L30.93 32.192C31.2639 31.6 31.6198 31.0212 31.9967 30.4568C32.651 30.4062 33.3219 30.3798 33.9999 30.3798C34.6811 30.3798 35.3529 30.4064 36.007 30.4574C36.3801 31.0209 36.7337 31.5977 37.067 32.1868C37.4022 32.7773 37.7185 33.3788 38.0154 33.9904C37.7216 34.6082 37.4063 35.2151 37.0701 35.81ZM39.0089 25.0864C39.7455 25.5205 40.032 27.2711 39.5692 29.5669C39.5396 29.7134 39.5064 29.8626 39.4704 30.0139C38.5575 29.7985 37.5664 29.6385 36.5287 29.539C35.9242 28.6594 35.2978 27.8597 34.669 27.1674C34.8338 27.0051 35.0025 26.847 35.175 26.6933C36.7992 25.2491 38.3172 24.6788 39.0089 25.0864ZM34 31.9738C35.085 31.9738 35.9645 32.8725 35.9645 33.9811C35.9645 35.0897 35.085 35.9884 34 35.9884C32.915 35.9884 32.0355 35.0897 32.0355 33.9811C32.0355 32.8725 32.915 31.9738 34 31.9738Z" fill="#00D8FF"/>
<path d="M67.7891 38V30H70.7891C71.4036 30 71.9193 30.1068 72.3359 30.3203C72.7552 30.5339 73.0716 30.8333 73.2852 31.2187C73.5013 31.6016 73.6094 32.0482 73.6094 32.5586C73.6094 33.0716 73.5 33.5169 73.2813 33.8945C73.0651 34.2695 72.7461 34.5599 72.3242 34.7656C71.9023 34.9687 71.3841 35.0703 70.7695 35.0703H68.6328V33.8672H70.5742C70.9336 33.8672 71.2279 33.8177 71.457 33.7187C71.6862 33.6172 71.8555 33.4701 71.9648 33.2773C72.0768 33.082 72.1328 32.8424 72.1328 32.5586C72.1328 32.2747 72.0768 32.0326 71.9648 31.832C71.8529 31.6289 71.6823 31.4753 71.4531 31.3711C71.224 31.2643 70.9284 31.2109 70.5664 31.2109H69.2383V38H67.7891ZM71.9219 34.375L73.9023 38H72.2852L70.3398 34.375H71.9219ZM77.4512 38.1172C76.8496 38.1172 76.3301 37.9922 75.8926 37.7422C75.4577 37.4896 75.123 37.1328 74.8887 36.6719C74.6543 36.2083 74.5371 35.6628 74.5371 35.0352C74.5371 34.418 74.6543 33.8763 74.8887 33.4102C75.1257 32.9414 75.4564 32.5768 75.8809 32.3164C76.3053 32.0534 76.804 31.9219 77.377 31.9219C77.7467 31.9219 78.0957 31.9818 78.4238 32.1016C78.7546 32.2187 79.0462 32.401 79.2988 32.6484C79.554 32.8958 79.7546 33.2109 79.9004 33.5937C80.0462 33.974 80.1191 34.4271 80.1191 34.9531V35.3867H75.2012V34.4336H78.7637C78.7611 34.1628 78.7025 33.9219 78.5879 33.7109C78.4733 33.4974 78.3132 33.3294 78.1074 33.207C77.9043 33.0846 77.6673 33.0234 77.3965 33.0234C77.1074 33.0234 76.8535 33.0937 76.6348 33.2344C76.416 33.3724 76.2454 33.5547 76.123 33.7812C76.0033 34.0052 75.9421 34.2513 75.9395 34.5195V35.3516C75.9395 35.7005 76.0033 36 76.1309 36.25C76.2585 36.4974 76.4368 36.6875 76.666 36.8203C76.8952 36.9505 77.1634 37.0156 77.4707 37.0156C77.6764 37.0156 77.8626 36.987 78.0293 36.9297C78.196 36.8698 78.3405 36.7826 78.4629 36.668C78.5853 36.5534 78.6777 36.4115 78.7402 36.2422L80.0605 36.3906C79.9772 36.7396 79.8184 37.0443 79.584 37.3047C79.3522 37.5625 79.0553 37.763 78.6934 37.9062C78.3314 38.0469 77.9173 38.1172 77.4512 38.1172ZM83.042 38.1211C82.6618 38.1211 82.3193 38.0534 82.0146 37.918C81.7126 37.7799 81.473 37.5768 81.2959 37.3086C81.1214 37.0404 81.0342 36.7096 81.0342 36.3164C81.0342 35.9779 81.0967 35.6979 81.2217 35.4766C81.3467 35.2552 81.5173 35.0781 81.7334 34.9453C81.9495 34.8125 82.193 34.7122 82.4639 34.6445C82.7373 34.5742 83.0199 34.5234 83.3115 34.4922C83.6631 34.4557 83.9482 34.4232 84.167 34.3945C84.3857 34.3633 84.5446 34.3164 84.6436 34.2539C84.7451 34.1888 84.7959 34.0885 84.7959 33.9531V33.9297C84.7959 33.6354 84.7087 33.4076 84.5342 33.2461C84.3597 33.0846 84.1084 33.0039 83.7803 33.0039C83.4339 33.0039 83.1592 33.0794 82.9561 33.2305C82.7555 33.3815 82.6201 33.5599 82.5498 33.7656L81.2295 33.5781C81.3337 33.2135 81.5055 32.9089 81.7451 32.6641C81.9847 32.4167 82.2777 32.2318 82.624 32.1094C82.9704 31.9844 83.3532 31.9219 83.7725 31.9219C84.0615 31.9219 84.3493 31.9557 84.6357 32.0234C84.9222 32.0911 85.1839 32.2031 85.4209 32.3594C85.6579 32.513 85.848 32.7227 85.9912 32.9883C86.137 33.2539 86.21 33.5859 86.21 33.9844V38H84.8506V37.1758H84.8037C84.7178 37.3424 84.5967 37.4987 84.4404 37.6445C84.2868 37.7878 84.0928 37.9036 83.8584 37.9922C83.6266 38.0781 83.3545 38.1211 83.042 38.1211ZM83.4092 37.082C83.693 37.082 83.9391 37.026 84.1475 36.9141C84.3558 36.7995 84.516 36.6484 84.6279 36.4609C84.7425 36.2734 84.7998 36.069 84.7998 35.8477V35.1406C84.7555 35.1771 84.68 35.2109 84.5732 35.2422C84.4691 35.2734 84.3519 35.3008 84.2217 35.3242C84.0915 35.3477 83.9626 35.3685 83.835 35.3867C83.7074 35.4049 83.5967 35.4206 83.5029 35.4336C83.292 35.4622 83.1032 35.5091 82.9365 35.5742C82.7699 35.6393 82.6383 35.7305 82.542 35.8477C82.4456 35.9622 82.3975 36.1107 82.3975 36.293C82.3975 36.5534 82.4925 36.75 82.6826 36.8828C82.8727 37.0156 83.1149 37.082 83.4092 37.082ZM90.249 38.1172C89.6501 38.1172 89.1357 37.9857 88.7061 37.7227C88.279 37.4596 87.9495 37.0964 87.7178 36.6328C87.4886 36.1667 87.374 35.6302 87.374 35.0234C87.374 34.4141 87.4912 33.8763 87.7256 33.4102C87.96 32.9414 88.2907 32.5768 88.7178 32.3164C89.1475 32.0534 89.6553 31.9219 90.2412 31.9219C90.7282 31.9219 91.1592 32.0117 91.5342 32.1914C91.9118 32.3685 92.2126 32.6198 92.4365 32.9453C92.6605 33.2682 92.7881 33.6458 92.8193 34.0781H91.4678C91.4131 33.7891 91.2829 33.5482 91.0771 33.3555C90.874 33.1602 90.6019 33.0625 90.2607 33.0625C89.9717 33.0625 89.7178 33.1406 89.499 33.2969C89.2803 33.4505 89.1097 33.6719 88.9873 33.9609C88.8675 34.25 88.8076 34.5964 88.8076 35C88.8076 35.4089 88.8675 35.7604 88.9873 36.0547C89.1071 36.3464 89.2751 36.5716 89.4912 36.7305C89.71 36.8867 89.9665 36.9648 90.2607 36.9648C90.4691 36.9648 90.6553 36.9258 90.8193 36.8477C90.986 36.7669 91.1253 36.651 91.2373 36.5C91.3493 36.349 91.4261 36.1654 91.4678 35.9492H92.8193C92.7855 36.3737 92.6605 36.75 92.4443 37.0781C92.2282 37.4036 91.9339 37.6589 91.5615 37.8437C91.1891 38.026 90.7516 38.1172 90.249 38.1172ZM96.9766 32V33.0937H93.5273V32H96.9766ZM94.3789 30.5625H95.793V36.1953C95.793 36.3854 95.8216 36.5313 95.8789 36.6328C95.9388 36.7318 96.0169 36.7995 96.1133 36.8359C96.2096 36.8724 96.3164 36.8906 96.4336 36.8906C96.5221 36.8906 96.6029 36.8841 96.6758 36.8711C96.7513 36.8581 96.8086 36.8464 96.8477 36.8359L97.0859 37.9414C97.0104 37.9674 96.9023 37.9961 96.7617 38.0273C96.6237 38.0586 96.4544 38.0768 96.2539 38.082C95.8997 38.0924 95.5807 38.0391 95.2969 37.9219C95.013 37.8021 94.7878 37.6172 94.6211 37.3672C94.457 37.1172 94.3763 36.8047 94.3789 36.4297V30.5625ZM104.106 30H105.544V35.625C105.541 36.1406 105.432 36.5846 105.216 36.957C105 37.3268 104.698 37.612 104.31 37.8125C103.924 38.0104 103.475 38.1094 102.962 38.1094C102.493 38.1094 102.071 38.026 101.696 37.8594C101.324 37.6901 101.028 37.4401 100.81 37.1094C100.591 36.7786 100.481 36.3672 100.481 35.875H101.923C101.925 36.0911 101.972 36.2773 102.063 36.4336C102.157 36.5898 102.286 36.7096 102.45 36.793C102.614 36.8763 102.803 36.918 103.017 36.918C103.248 36.918 103.445 36.8698 103.606 36.7734C103.768 36.6745 103.89 36.5286 103.974 36.3359C104.06 36.1432 104.104 35.9062 104.106 35.625V30ZM111.464 32.1992C111.427 31.8581 111.274 31.5924 111.003 31.4023C110.735 31.2122 110.386 31.1172 109.956 31.1172C109.654 31.1172 109.395 31.1628 109.179 31.2539C108.963 31.3451 108.797 31.4687 108.683 31.625C108.568 31.7812 108.509 31.9596 108.507 32.1602C108.507 32.3268 108.545 32.4714 108.62 32.5937C108.698 32.7161 108.804 32.8203 108.937 32.9062C109.069 32.9896 109.216 33.0599 109.378 33.1172C109.539 33.1745 109.702 33.2227 109.866 33.2617L110.616 33.4492C110.918 33.5195 111.209 33.6146 111.487 33.7344C111.769 33.8542 112.02 34.0052 112.241 34.1875C112.465 34.3698 112.642 34.5898 112.772 34.8477C112.903 35.1055 112.968 35.4076 112.968 35.7539C112.968 36.2227 112.848 36.6354 112.608 36.9922C112.369 37.3464 112.022 37.6237 111.569 37.8242C111.119 38.0221 110.573 38.1211 109.933 38.1211C109.31 38.1211 108.77 38.0247 108.312 37.832C107.856 37.6393 107.499 37.3581 107.241 36.9883C106.986 36.6185 106.848 36.168 106.827 35.6367H108.253C108.274 35.9154 108.36 36.1471 108.511 36.332C108.662 36.5169 108.858 36.6549 109.101 36.7461C109.345 36.8372 109.619 36.8828 109.921 36.8828C110.236 36.8828 110.512 36.8359 110.749 36.7422C110.989 36.6458 111.176 36.513 111.312 36.3437C111.447 36.1719 111.516 35.9714 111.519 35.7422C111.516 35.5339 111.455 35.362 111.335 35.2266C111.215 35.0885 111.047 34.974 110.831 34.8828C110.618 34.7891 110.368 34.7057 110.081 34.6328L109.171 34.3984C108.512 34.2292 107.991 33.9727 107.608 33.6289C107.228 33.2826 107.038 32.8229 107.038 32.25C107.038 31.7786 107.166 31.3659 107.421 31.0117C107.679 30.6576 108.029 30.3828 108.472 30.1875C108.914 29.9896 109.416 29.8906 109.976 29.8906C110.543 29.8906 111.041 29.9896 111.468 30.1875C111.897 30.3828 112.235 30.6549 112.479 31.0039C112.724 31.3503 112.851 31.7487 112.858 32.1992H111.464Z" fill="#EFF6F7"/>
<line x1="57.1" y1="19" x2="57.1" y2="49" stroke="white" stroke-width="0.2"/>
</svg>
