<svg width="122" height="69" viewBox="0 0 122 69" fill="none" xmlns="http://www.w3.org/2000/svg">
<rect width="122" height="69" fill="#343E51"/>
<path d="M64.8608 33V24.2727H68.1335C68.804 24.2727 69.3665 24.3892 69.821 24.6222C70.2784 24.8551 70.6236 25.1818 70.8565 25.6023C71.0923 26.0199 71.2102 26.5071 71.2102 27.0639C71.2102 27.6236 71.0909 28.1094 70.8523 28.5213C70.6165 28.9304 70.2685 29.2472 69.8082 29.4716C69.348 29.6932 68.7827 29.804 68.1122 29.804H65.7812V28.4915H67.8991C68.2912 28.4915 68.6122 28.4375 68.8622 28.3295C69.1122 28.2187 69.2969 28.0582 69.4162 27.848C69.5384 27.6349 69.5994 27.3736 69.5994 27.0639C69.5994 26.7543 69.5384 26.4901 69.4162 26.2713C69.294 26.0497 69.108 25.8821 68.858 25.7685C68.608 25.652 68.2855 25.5938 67.8906 25.5938H66.4418V33H64.8608ZM69.3693 29.0455L71.5298 33H69.7656L67.6435 29.0455H69.3693ZM75.4013 33.1278C74.745 33.1278 74.1783 32.9915 73.701 32.7188C73.2266 32.4432 72.8615 32.054 72.6058 31.5511C72.3501 31.0455 72.2223 30.4503 72.2223 29.7656C72.2223 29.0923 72.3501 28.5014 72.6058 27.9929C72.8643 27.4815 73.2251 27.0838 73.6882 26.7997C74.1513 26.5128 74.6953 26.3693 75.3203 26.3693C75.7237 26.3693 76.1044 26.4347 76.4624 26.5653C76.8232 26.6932 77.1413 26.892 77.4169 27.1619C77.6953 27.4318 77.9141 27.7756 78.0732 28.1932C78.2322 28.608 78.3118 29.1023 78.3118 29.6761V30.1491H72.9467V29.1094H76.8331C76.8303 28.8139 76.7663 28.5511 76.6413 28.321C76.5163 28.0881 76.3416 27.9048 76.1172 27.7713C75.8956 27.6378 75.6371 27.571 75.3416 27.571C75.0263 27.571 74.7493 27.6477 74.5107 27.8011C74.272 27.9517 74.0859 28.1506 73.9524 28.3977C73.8217 28.642 73.755 28.9105 73.7521 29.2031V30.1108C73.7521 30.4915 73.8217 30.8182 73.9609 31.0909C74.1001 31.3608 74.2947 31.5682 74.5447 31.7131C74.7947 31.8551 75.0874 31.9261 75.4226 31.9261C75.647 31.9261 75.8501 31.8949 76.032 31.8324C76.2138 31.767 76.3714 31.6719 76.505 31.5469C76.6385 31.4219 76.7393 31.267 76.8075 31.0824L78.2479 31.2443C78.157 31.625 77.9837 31.9574 77.728 32.2415C77.4751 32.5227 77.1513 32.7415 76.7564 32.8977C76.3615 33.0511 75.9098 33.1278 75.4013 33.1278ZM81.5004 33.1321C81.0856 33.1321 80.712 33.0582 80.3796 32.9105C80.0501 32.7599 79.7887 32.5384 79.5955 32.2457C79.4052 31.9531 79.31 31.5923 79.31 31.1634C79.31 30.794 79.3782 30.4886 79.5146 30.2472C79.6509 30.0057 79.837 29.8125 80.0728 29.6676C80.3086 29.5227 80.5742 29.4134 80.8697 29.3395C81.168 29.2628 81.4762 29.2074 81.7944 29.1733C82.1779 29.1335 82.489 29.098 82.7276 29.0668C82.9663 29.0327 83.1396 28.9815 83.2475 28.9134C83.3583 28.8423 83.4137 28.733 83.4137 28.5852V28.5597C83.4137 28.2386 83.3185 27.9901 83.1282 27.8139C82.9379 27.6378 82.6637 27.5497 82.3058 27.5497C81.9279 27.5497 81.6282 27.6321 81.4066 27.7969C81.1879 27.9616 81.0401 28.1562 80.9634 28.3807L79.5231 28.1761C79.6367 27.7784 79.8242 27.446 80.0856 27.179C80.3469 26.9091 80.6665 26.7074 81.0444 26.5739C81.4222 26.4375 81.8398 26.3693 82.2972 26.3693C82.6126 26.3693 82.9265 26.4062 83.239 26.4801C83.5515 26.554 83.837 26.6761 84.0955 26.8466C84.354 27.0142 84.5614 27.2429 84.7177 27.5327C84.8768 27.8224 84.9563 28.1847 84.9563 28.6193V33H83.4734V32.1009H83.4222C83.3285 32.2827 83.1964 32.4531 83.0259 32.6122C82.8583 32.7685 82.6467 32.8949 82.391 32.9915C82.1381 33.0852 81.8413 33.1321 81.5004 33.1321ZM81.9009 31.9986C82.2106 31.9986 82.479 31.9375 82.7063 31.8153C82.9336 31.6903 83.1083 31.5256 83.2305 31.321C83.3555 31.1165 83.418 30.8935 83.418 30.652V29.8807C83.3697 29.9205 83.2873 29.9574 83.1708 29.9915C83.0572 30.0256 82.9293 30.0554 82.7873 30.081C82.6452 30.1065 82.5046 30.1293 82.3654 30.1491C82.2262 30.169 82.1055 30.1861 82.0032 30.2003C81.7731 30.2315 81.5671 30.2827 81.3853 30.3537C81.2035 30.4247 81.06 30.5241 80.9549 30.652C80.8498 30.777 80.7972 30.9389 80.7972 31.1378C80.7972 31.4219 80.9009 31.6364 81.1083 31.7812C81.3157 31.9261 81.5799 31.9986 81.9009 31.9986ZM89.3626 33.1278C88.7092 33.1278 88.1481 32.9844 87.6793 32.6974C87.2134 32.4105 86.854 32.0142 86.6012 31.5085C86.3512 31 86.2262 30.4148 86.2262 29.7528C86.2262 29.0881 86.354 28.5014 86.6097 27.9929C86.8654 27.4815 87.2262 27.0838 87.6921 26.7997C88.1609 26.5128 88.7148 26.3693 89.354 26.3693C89.8853 26.3693 90.3555 26.4673 90.7646 26.6634C91.1765 26.8565 91.5046 27.1307 91.7489 27.4858C91.9933 27.8381 92.1325 28.25 92.1665 28.7216H90.6921C90.6325 28.4062 90.4904 28.1435 90.266 27.9332C90.0444 27.7202 89.7475 27.6136 89.3754 27.6136C89.06 27.6136 88.783 27.6989 88.5444 27.8693C88.3058 28.0369 88.1197 28.2784 87.9862 28.5938C87.8555 28.9091 87.7901 29.2869 87.7901 29.7273C87.7901 30.1733 87.8555 30.5568 87.9862 30.8778C88.1168 31.196 88.3001 31.4418 88.5359 31.6151C88.7745 31.7855 89.0543 31.8707 89.3754 31.8707C89.6026 31.8707 89.8058 31.8281 89.9847 31.7429C90.1665 31.6548 90.3185 31.5284 90.4407 31.3636C90.5629 31.1989 90.6467 30.9986 90.6921 30.7628H92.1665C92.1296 31.2259 91.9933 31.6364 91.7575 31.9943C91.5217 32.3494 91.2006 32.6278 90.7944 32.8295C90.3881 33.0284 89.9109 33.1278 89.3626 33.1278ZM96.7017 26.4545V27.6477H92.9389V26.4545H96.7017ZM93.8679 24.8864H95.4105V31.0312C95.4105 31.2386 95.4418 31.3977 95.5043 31.5085C95.5696 31.6165 95.6548 31.6903 95.7599 31.7301C95.8651 31.7699 95.9815 31.7898 96.1094 31.7898C96.206 31.7898 96.294 31.7827 96.3736 31.7685C96.456 31.7543 96.5185 31.7415 96.5611 31.7301L96.821 32.9361C96.7386 32.9645 96.6207 32.9957 96.4673 33.0298C96.3168 33.0639 96.1321 33.0838 95.9134 33.0895C95.527 33.1009 95.179 33.0426 94.8693 32.9148C94.5597 32.7841 94.3139 32.5824 94.1321 32.3097C93.9531 32.0369 93.8651 31.696 93.8679 31.2869V24.8864Z" fill="white"/>
<path d="M69.554 39.1449H68.4915C68.4612 38.9706 68.4053 38.8163 68.3239 38.6818C68.2424 38.5455 68.1411 38.4299 68.0199 38.3352C67.8987 38.2405 67.7604 38.1695 67.6051 38.1222C67.4517 38.0729 67.286 38.0483 67.108 38.0483C66.7917 38.0483 66.5114 38.1278 66.267 38.2869C66.0227 38.4441 65.8314 38.6752 65.6932 38.9801C65.5549 39.2831 65.4858 39.6534 65.4858 40.0909C65.4858 40.536 65.5549 40.911 65.6932 41.2159C65.8333 41.5189 66.0246 41.7481 66.267 41.9034C66.5114 42.0568 66.7907 42.1335 67.1051 42.1335C67.2794 42.1335 67.4422 42.1108 67.5938 42.0653C67.7472 42.018 67.8845 41.9489 68.0057 41.858C68.1288 41.767 68.232 41.6553 68.3153 41.5227C68.4006 41.3902 68.4593 41.2386 68.4915 41.0682L69.554 41.0739C69.5142 41.3504 69.428 41.6098 69.2955 41.8523C69.1648 42.0947 68.9934 42.3087 68.7812 42.4943C68.5691 42.678 68.321 42.822 68.0369 42.9261C67.7528 43.0284 67.4375 43.0795 67.0909 43.0795C66.5795 43.0795 66.1231 42.9612 65.7216 42.7244C65.3201 42.4877 65.0038 42.1458 64.7727 41.6989C64.5417 41.2519 64.4261 40.7159 64.4261 40.0909C64.4261 39.464 64.5426 38.928 64.7756 38.483C65.0085 38.036 65.3258 37.6941 65.7273 37.4574C66.1288 37.2206 66.5833 37.1023 67.0909 37.1023C67.4148 37.1023 67.7159 37.1477 67.9943 37.2386C68.2727 37.3295 68.5208 37.4631 68.7386 37.6392C68.9564 37.8134 69.1354 38.0275 69.2756 38.2812C69.4176 38.5331 69.5104 38.821 69.554 39.1449ZM72.3771 43.0852C71.951 43.0852 71.5817 42.9915 71.2692 42.804C70.9567 42.6165 70.7143 42.3542 70.5419 42.017C70.3714 41.6799 70.2862 41.286 70.2862 40.8352C70.2862 40.3845 70.3714 39.9896 70.5419 39.6506C70.7143 39.3116 70.9567 39.0483 71.2692 38.8608C71.5817 38.6733 71.951 38.5795 72.3771 38.5795C72.8033 38.5795 73.1726 38.6733 73.4851 38.8608C73.7976 39.0483 74.0391 39.3116 74.2095 39.6506C74.3819 39.9896 74.468 40.3845 74.468 40.8352C74.468 41.286 74.3819 41.6799 74.2095 42.017C74.0391 42.3542 73.7976 42.6165 73.4851 42.804C73.1726 42.9915 72.8033 43.0852 72.3771 43.0852ZM72.3828 42.2614C72.6139 42.2614 72.8071 42.1979 72.9624 42.071C73.1177 41.9422 73.2332 41.7699 73.3089 41.554C73.3866 41.3381 73.4254 41.0975 73.4254 40.8324C73.4254 40.5653 73.3866 40.3239 73.3089 40.108C73.2332 39.8902 73.1177 39.7169 72.9624 39.5881C72.8071 39.4593 72.6139 39.3949 72.3828 39.3949C72.1461 39.3949 71.9491 39.4593 71.7919 39.5881C71.6366 39.7169 71.5201 39.8902 71.4425 40.108C71.3667 40.3239 71.3288 40.5653 71.3288 40.8324C71.3288 41.0975 71.3667 41.3381 71.4425 41.554C71.5201 41.7699 71.6366 41.9422 71.7919 42.071C71.9491 42.1979 72.1461 42.2614 72.3828 42.2614ZM75.3409 43V38.6364H76.3239V39.3778H76.375C76.4659 39.1278 76.6165 38.9328 76.8267 38.7926C77.0369 38.6506 77.2879 38.5795 77.5795 38.5795C77.875 38.5795 78.1241 38.6515 78.3267 38.7955C78.5313 38.9375 78.6752 39.1316 78.7585 39.3778H78.804C78.9006 39.1354 79.0634 38.9422 79.2926 38.7983C79.5237 38.6525 79.7973 38.5795 80.1136 38.5795C80.5152 38.5795 80.8428 38.7064 81.0966 38.9602C81.3504 39.214 81.4773 39.5843 81.4773 40.071V43H80.446V40.2301C80.446 39.9593 80.3741 39.7614 80.2301 39.6364C80.0862 39.5095 79.91 39.446 79.7017 39.446C79.4536 39.446 79.2595 39.5237 79.1193 39.679C78.9811 39.8324 78.9119 40.0322 78.9119 40.2784V43H77.9034V40.1875C77.9034 39.9621 77.8352 39.7822 77.6989 39.6477C77.5644 39.5133 77.3883 39.446 77.1705 39.446C77.0227 39.446 76.8883 39.4839 76.767 39.5597C76.6458 39.6335 76.5492 39.7386 76.4773 39.875C76.4053 40.0095 76.3693 40.1667 76.3693 40.3466V43H75.3409ZM82.5206 44.6364V38.6364H83.532V39.358H83.5916C83.6446 39.2519 83.7195 39.1392 83.8161 39.0199C83.9126 38.8987 84.0433 38.7955 84.2081 38.7102C84.3729 38.6231 84.5831 38.5795 84.8388 38.5795C85.1759 38.5795 85.4799 38.6657 85.7507 38.8381C86.0234 39.0085 86.2393 39.2614 86.3984 39.5966C86.5594 39.9299 86.6399 40.339 86.6399 40.8239C86.6399 41.303 86.5613 41.7102 86.4041 42.0455C86.2469 42.3807 86.0329 42.6364 85.7621 42.8125C85.4912 42.9886 85.1844 43.0767 84.8416 43.0767C84.5916 43.0767 84.3842 43.035 84.2195 42.9517C84.0547 42.8684 83.9221 42.768 83.8217 42.6506C83.7232 42.5312 83.6465 42.4186 83.5916 42.3125H83.549V44.6364H82.5206ZM83.5291 40.8182C83.5291 41.1004 83.5689 41.3475 83.6484 41.5597C83.7299 41.7718 83.8464 41.9375 83.9979 42.0568C84.1513 42.1742 84.3369 42.233 84.5547 42.233C84.782 42.233 84.9723 42.1723 85.1257 42.0511C85.2791 41.928 85.3946 41.7604 85.4723 41.5483C85.5518 41.3343 85.5916 41.0909 85.5916 40.8182C85.5916 40.5473 85.5528 40.3068 85.4751 40.0966C85.3975 39.8864 85.282 39.7216 85.1286 39.6023C84.9751 39.483 84.7839 39.4233 84.5547 39.4233C84.335 39.4233 84.1484 39.4811 83.995 39.5966C83.8416 39.7121 83.7251 39.8741 83.6456 40.0824C83.5679 40.2907 83.5291 40.536 83.5291 40.8182ZM89.424 43.0852C88.9979 43.0852 88.6286 42.9915 88.3161 42.804C88.0036 42.6165 87.7611 42.3542 87.5888 42.017C87.4183 41.6799 87.3331 41.286 87.3331 40.8352C87.3331 40.3845 87.4183 39.9896 87.5888 39.6506C87.7611 39.3116 88.0036 39.0483 88.3161 38.8608C88.6286 38.6733 88.9979 38.5795 89.424 38.5795C89.8501 38.5795 90.2195 38.6733 90.532 38.8608C90.8445 39.0483 91.0859 39.3116 91.2564 39.6506C91.4287 39.9896 91.5149 40.3845 91.5149 40.8352C91.5149 41.286 91.4287 41.6799 91.2564 42.017C91.0859 42.3542 90.8445 42.6165 90.532 42.804C90.2195 42.9915 89.8501 43.0852 89.424 43.0852ZM89.4297 42.2614C89.6607 42.2614 89.8539 42.1979 90.0092 42.071C90.1645 41.9422 90.2801 41.7699 90.3558 41.554C90.4335 41.3381 90.4723 41.0975 90.4723 40.8324C90.4723 40.5653 90.4335 40.3239 90.3558 40.108C90.2801 39.8902 90.1645 39.7169 90.0092 39.5881C89.8539 39.4593 89.6607 39.3949 89.4297 39.3949C89.1929 39.3949 88.996 39.4593 88.8388 39.5881C88.6835 39.7169 88.567 39.8902 88.4893 40.108C88.4136 40.3239 88.3757 40.5653 88.3757 40.8324C88.3757 41.0975 88.4136 41.3381 88.4893 41.554C88.567 41.7699 88.6835 41.9422 88.8388 42.071C88.996 42.1979 89.1929 42.2614 89.4297 42.2614ZM93.4162 40.4432V43H92.3878V38.6364H93.3707V39.3778H93.4219C93.5223 39.1335 93.6823 38.9394 93.902 38.7955C94.1236 38.6515 94.3973 38.5795 94.723 38.5795C95.0241 38.5795 95.2865 38.6439 95.5099 38.7727C95.7353 38.9015 95.9096 39.0881 96.0327 39.3324C96.1577 39.5767 96.2192 39.8731 96.2173 40.2216V43H95.1889V40.3807C95.1889 40.089 95.1132 39.8608 94.9616 39.696C94.812 39.5312 94.6046 39.4489 94.3395 39.4489C94.1596 39.4489 93.9995 39.4886 93.8594 39.5682C93.7211 39.6458 93.6122 39.7585 93.5327 39.9062C93.455 40.054 93.4162 40.233 93.4162 40.4432ZM99.1946 43.0852C98.7571 43.0852 98.3793 42.9943 98.0611 42.8125C97.7448 42.6288 97.5014 42.3693 97.331 42.0341C97.1605 41.697 97.0753 41.3002 97.0753 40.8438C97.0753 40.3949 97.1605 40.0009 97.331 39.6619C97.5033 39.321 97.7438 39.0559 98.0526 38.8665C98.3613 38.6752 98.724 38.5795 99.1406 38.5795C99.4096 38.5795 99.6634 38.6231 99.902 38.7102C100.143 38.7955 100.355 38.928 100.538 39.108C100.724 39.2879 100.87 39.517 100.976 39.7955C101.082 40.072 101.135 40.4015 101.135 40.7841V41.0994H97.5582V40.4062H100.149C100.147 40.2093 100.105 40.0341 100.021 39.8807C99.938 39.7254 99.8215 39.6032 99.6719 39.5142C99.5241 39.4252 99.3518 39.3807 99.1548 39.3807C98.9446 39.3807 98.7599 39.4318 98.6009 39.5341C98.4418 39.6345 98.3177 39.767 98.2287 39.9318C98.1416 40.0947 98.0971 40.2737 98.0952 40.4688V41.0739C98.0952 41.3277 98.1416 41.5455 98.2344 41.7273C98.3272 41.9072 98.4569 42.0455 98.6236 42.142C98.7902 42.2367 98.9853 42.2841 99.2088 42.2841C99.3584 42.2841 99.4938 42.2633 99.6151 42.2216C99.7363 42.178 99.8414 42.1146 99.9304 42.0312C100.019 41.9479 100.087 41.8447 100.132 41.7216L101.092 41.8295C101.032 42.0833 100.916 42.3049 100.746 42.4943C100.577 42.6818 100.361 42.8277 100.098 42.9318C99.8348 43.0341 99.5336 43.0852 99.1946 43.0852ZM103.033 40.4432V43H102.005V38.6364H102.988V39.3778H103.039C103.139 39.1335 103.299 38.9394 103.519 38.7955C103.741 38.6515 104.014 38.5795 104.34 38.5795C104.641 38.5795 104.904 38.6439 105.127 38.7727C105.353 38.9015 105.527 39.0881 105.65 39.3324C105.775 39.5767 105.836 39.8731 105.835 40.2216V43H104.806V40.3807C104.806 40.089 104.73 39.8608 104.579 39.696C104.429 39.5312 104.222 39.4489 103.957 39.4489C103.777 39.4489 103.617 39.4886 103.477 39.5682C103.338 39.6458 103.229 39.7585 103.15 39.9062C103.072 40.054 103.033 40.233 103.033 40.4432ZM109.059 38.6364V39.4318H106.55V38.6364H109.059ZM107.17 37.5909H108.198V41.6875C108.198 41.8258 108.219 41.9318 108.261 42.0057C108.304 42.0777 108.361 42.1269 108.431 42.1534C108.501 42.1799 108.579 42.1932 108.664 42.1932C108.728 42.1932 108.787 42.1884 108.84 42.179C108.895 42.1695 108.937 42.161 108.965 42.1534L109.138 42.9574C109.084 42.9763 109.005 42.9972 108.903 43.0199C108.802 43.0426 108.679 43.0559 108.533 43.0597C108.276 43.0672 108.044 43.0284 107.837 42.9432C107.631 42.8561 107.467 42.7216 107.346 42.5398C107.227 42.358 107.168 42.1307 107.17 41.858V37.5909ZM113.305 39.7898L112.368 39.892C112.341 39.7973 112.295 39.7083 112.229 39.625C112.164 39.5417 112.077 39.4744 111.967 39.4233C111.857 39.3722 111.723 39.3466 111.564 39.3466C111.35 39.3466 111.17 39.393 111.024 39.4858C110.88 39.5786 110.809 39.6989 110.811 39.8466C110.809 39.9735 110.856 40.0767 110.95 40.1562C111.047 40.2358 111.206 40.3011 111.428 40.3523L112.172 40.5114C112.585 40.6004 112.892 40.7415 113.092 40.9347C113.295 41.1278 113.397 41.3807 113.399 41.6932C113.397 41.9678 113.317 42.2102 113.158 42.4205C113 42.6288 112.782 42.7917 112.501 42.9091C112.221 43.0265 111.899 43.0852 111.536 43.0852C111.001 43.0852 110.571 42.9735 110.246 42.75C109.92 42.5246 109.726 42.2112 109.663 41.8097L110.666 41.7131C110.712 41.91 110.808 42.0587 110.956 42.1591C111.104 42.2595 111.296 42.3097 111.533 42.3097C111.777 42.3097 111.973 42.2595 112.121 42.1591C112.27 42.0587 112.345 41.9347 112.345 41.7869C112.345 41.6619 112.297 41.5587 112.2 41.4773C112.106 41.3958 111.958 41.3333 111.757 41.2898L111.013 41.1335C110.594 41.0464 110.285 40.8996 110.084 40.6932C109.883 40.4848 109.784 40.2216 109.786 39.9034C109.784 39.6345 109.857 39.4015 110.004 39.2045C110.154 39.0057 110.361 38.8523 110.626 38.7443C110.893 38.6345 111.201 38.5795 111.55 38.5795C112.061 38.5795 112.464 38.6884 112.757 38.9062C113.053 39.1241 113.235 39.4186 113.305 39.7898Z" fill="#E2E2E2"/>
<path d="M28.625 26.5L33 22.125L37.375 26.5L33 30.875L28.625 26.5Z" fill="#2F88FF"/>
<path d="M28.625 41.5L33 37.125L37.375 41.5L33 45.875L28.625 41.5Z" fill="#2F88FF"/>
<path d="M36.125 34L40.5 29.625L44.875 34L40.5 38.375L36.125 34Z" fill="#2F88FF"/>
<path d="M21.125 34L25.5 29.625L29.875 34L25.5 38.375L21.125 34Z" fill="#2F88FF"/>
<line x1="55.9" y1="49" x2="55.9" y2="19" stroke="white" stroke-width="0.2"/>
</svg>
