<svg width="122" height="69" viewBox="0 0 122 69" fill="none" xmlns="http://www.w3.org/2000/svg">
<rect width="122" height="69" fill="#343E51"/>
<path d="M65.8608 34V25.2727H69.1335C69.804 25.2727 70.3665 25.3892 70.821 25.6222C71.2784 25.8551 71.6236 26.1818 71.8565 26.6023C72.0923 27.0199 72.2102 27.5071 72.2102 28.0639C72.2102 28.6236 72.0909 29.1094 71.8523 29.5213C71.6165 29.9304 71.2685 30.2472 70.8082 30.4716C70.348 30.6932 69.7827 30.804 69.1122 30.804H66.7812V29.4915H68.8991C69.2912 29.4915 69.6122 29.4375 69.8622 29.3295C70.1122 29.2187 70.2969 29.0582 70.4162 28.848C70.5384 28.6349 70.5994 28.3736 70.5994 28.0639C70.5994 27.7543 70.5384 27.4901 70.4162 27.2713C70.294 27.0497 70.108 26.8821 69.858 26.7685C69.608 26.652 69.2855 26.5938 68.8906 26.5938H67.4418V34H65.8608ZM70.3693 30.0455L72.5298 34H70.7656L68.6435 30.0455H70.3693ZM76.4013 34.1278C75.745 34.1278 75.1783 33.9915 74.701 33.7188C74.2266 33.4432 73.8615 33.054 73.6058 32.5511C73.3501 32.0455 73.2223 31.4503 73.2223 30.7656C73.2223 30.0923 73.3501 29.5014 73.6058 28.9929C73.8643 28.4815 74.2251 28.0838 74.6882 27.7997C75.1513 27.5128 75.6953 27.3693 76.3203 27.3693C76.7237 27.3693 77.1044 27.4347 77.4624 27.5653C77.8232 27.6932 78.1413 27.892 78.4169 28.1619C78.6953 28.4318 78.9141 28.7756 79.0732 29.1932C79.2322 29.608 79.3118 30.1023 79.3118 30.6761V31.1491H73.9467V30.1094H77.8331C77.8303 29.8139 77.7663 29.5511 77.6413 29.321C77.5163 29.0881 77.3416 28.9048 77.1172 28.7713C76.8956 28.6378 76.6371 28.571 76.3416 28.571C76.0263 28.571 75.7493 28.6477 75.5107 28.8011C75.272 28.9517 75.0859 29.1506 74.9524 29.3977C74.8217 29.642 74.755 29.9105 74.7521 30.2031V31.1108C74.7521 31.4915 74.8217 31.8182 74.9609 32.0909C75.1001 32.3608 75.2947 32.5682 75.5447 32.7131C75.7947 32.8551 76.0874 32.9261 76.4226 32.9261C76.647 32.9261 76.8501 32.8949 77.032 32.8324C77.2138 32.767 77.3714 32.6719 77.505 32.5469C77.6385 32.4219 77.7393 32.267 77.8075 32.0824L79.2479 32.2443C79.157 32.625 78.9837 32.9574 78.728 33.2415C78.4751 33.5227 78.1513 33.7415 77.7564 33.8977C77.3615 34.0511 76.9098 34.1278 76.4013 34.1278ZM82.5004 34.1321C82.0856 34.1321 81.712 34.0582 81.3796 33.9105C81.0501 33.7599 80.7887 33.5384 80.5955 33.2457C80.4052 32.9531 80.31 32.5923 80.31 32.1634C80.31 31.794 80.3782 31.4886 80.5146 31.2472C80.6509 31.0057 80.837 30.8125 81.0728 30.6676C81.3086 30.5227 81.5742 30.4134 81.8697 30.3395C82.168 30.2628 82.4762 30.2074 82.7944 30.1733C83.1779 30.1335 83.489 30.098 83.7276 30.0668C83.9663 30.0327 84.1396 29.9815 84.2475 29.9134C84.3583 29.8423 84.4137 29.733 84.4137 29.5852V29.5597C84.4137 29.2386 84.3185 28.9901 84.1282 28.8139C83.9379 28.6378 83.6637 28.5497 83.3058 28.5497C82.9279 28.5497 82.6282 28.6321 82.4066 28.7969C82.1879 28.9616 82.0401 29.1562 81.9634 29.3807L80.5231 29.1761C80.6367 28.7784 80.8242 28.446 81.0856 28.179C81.3469 27.9091 81.6665 27.7074 82.0444 27.5739C82.4222 27.4375 82.8398 27.3693 83.2972 27.3693C83.6126 27.3693 83.9265 27.4062 84.239 27.4801C84.5515 27.554 84.837 27.6761 85.0955 27.8466C85.354 28.0142 85.5614 28.2429 85.7177 28.5327C85.8768 28.8224 85.9563 29.1847 85.9563 29.6193V34H84.4734V33.1009H84.4222C84.3285 33.2827 84.1964 33.4531 84.0259 33.6122C83.8583 33.7685 83.6467 33.8949 83.391 33.9915C83.1381 34.0852 82.8413 34.1321 82.5004 34.1321ZM82.9009 32.9986C83.2106 32.9986 83.479 32.9375 83.7063 32.8153C83.9336 32.6903 84.1083 32.5256 84.2305 32.321C84.3555 32.1165 84.418 31.8935 84.418 31.652V30.8807C84.3697 30.9205 84.2873 30.9574 84.1708 30.9915C84.0572 31.0256 83.9293 31.0554 83.7873 31.081C83.6452 31.1065 83.5046 31.1293 83.3654 31.1491C83.2262 31.169 83.1055 31.1861 83.0032 31.2003C82.7731 31.2315 82.5671 31.2827 82.3853 31.3537C82.2035 31.4247 82.06 31.5241 81.9549 31.652C81.8498 31.777 81.7972 31.9389 81.7972 32.1378C81.7972 32.4219 81.9009 32.6364 82.1083 32.7812C82.3157 32.9261 82.5799 32.9986 82.9009 32.9986ZM90.3626 34.1278C89.7092 34.1278 89.1481 33.9844 88.6793 33.6974C88.2134 33.4105 87.854 33.0142 87.6012 32.5085C87.3512 32 87.2262 31.4148 87.2262 30.7528C87.2262 30.0881 87.354 29.5014 87.6097 28.9929C87.8654 28.4815 88.2262 28.0838 88.6921 27.7997C89.1609 27.5128 89.7148 27.3693 90.354 27.3693C90.8853 27.3693 91.3555 27.4673 91.7646 27.6634C92.1765 27.8565 92.5046 28.1307 92.7489 28.4858C92.9933 28.8381 93.1325 29.25 93.1665 29.7216H91.6921C91.6325 29.4062 91.4904 29.1435 91.266 28.9332C91.0444 28.7202 90.7475 28.6136 90.3754 28.6136C90.06 28.6136 89.783 28.6989 89.5444 28.8693C89.3058 29.0369 89.1197 29.2784 88.9862 29.5938C88.8555 29.9091 88.7901 30.2869 88.7901 30.7273C88.7901 31.1733 88.8555 31.5568 88.9862 31.8778C89.1168 32.196 89.3001 32.4418 89.5359 32.6151C89.7745 32.7855 90.0543 32.8707 90.3754 32.8707C90.6026 32.8707 90.8058 32.8281 90.9847 32.7429C91.1665 32.6548 91.3185 32.5284 91.4407 32.3636C91.5629 32.1989 91.6467 31.9986 91.6921 31.7628H93.1665C93.1296 32.2259 92.9933 32.6364 92.7575 32.9943C92.5217 33.3494 92.2006 33.6278 91.7944 33.8295C91.3881 34.0284 90.9109 34.1278 90.3626 34.1278ZM97.7017 27.4545V28.6477H93.9389V27.4545H97.7017ZM94.8679 25.8864H96.4105V32.0312C96.4105 32.2386 96.4418 32.3977 96.5043 32.5085C96.5696 32.6165 96.6548 32.6903 96.7599 32.7301C96.8651 32.7699 96.9815 32.7898 97.1094 32.7898C97.206 32.7898 97.294 32.7827 97.3736 32.7685C97.456 32.7543 97.5185 32.7415 97.5611 32.7301L97.821 33.9361C97.7386 33.9645 97.6207 33.9957 97.4673 34.0298C97.3168 34.0639 97.1321 34.0838 96.9134 34.0895C96.527 34.1009 96.179 34.0426 95.8693 33.9148C95.5597 33.7841 95.3139 33.5824 95.1321 33.3097C94.9531 33.0369 94.8651 32.696 94.8679 32.2869V25.8864Z" fill="white"/>
<path d="M65.5739 44V38.1818H67.7557C68.2027 38.1818 68.5777 38.2652 68.8807 38.4318C69.1856 38.5985 69.4157 38.8277 69.571 39.1193C69.7282 39.4091 69.8068 39.7386 69.8068 40.108C69.8068 40.4811 69.7282 40.8125 69.571 41.1023C69.4138 41.392 69.1818 41.6203 68.875 41.7869C68.5682 41.9517 68.1903 42.0341 67.7415 42.0341H66.2955V41.1676H67.5994C67.8608 41.1676 68.0748 41.1222 68.2415 41.0312C68.4081 40.9403 68.5313 40.8153 68.6108 40.6562C68.6922 40.4972 68.733 40.3144 68.733 40.108C68.733 39.9015 68.6922 39.7197 68.6108 39.5625C68.5313 39.4053 68.4072 39.2831 68.2386 39.196C68.072 39.107 67.857 39.0625 67.5938 39.0625H66.6278V44H65.5739ZM70.6768 44V39.6364H71.674V40.3636H71.7195C71.799 40.1117 71.9354 39.9176 72.1286 39.7812C72.3236 39.643 72.5462 39.5739 72.7962 39.5739C72.853 39.5739 72.9164 39.5767 72.9865 39.5824C73.0585 39.5862 73.1181 39.5928 73.1655 39.6023V40.5483C73.1219 40.5331 73.0528 40.5199 72.9581 40.5085C72.8653 40.4953 72.7753 40.4886 72.6882 40.4886C72.5007 40.4886 72.3321 40.5294 72.1825 40.6108C72.0348 40.6903 71.9183 40.8011 71.8331 40.9432C71.7479 41.0852 71.7053 41.2491 71.7053 41.4347V44H70.6768ZM75.5724 44.0852C75.1463 44.0852 74.777 43.9915 74.4645 43.804C74.152 43.6165 73.9096 43.3542 73.7372 43.017C73.5668 42.6799 73.4815 42.286 73.4815 41.8352C73.4815 41.3845 73.5668 40.9896 73.7372 40.6506C73.9096 40.3116 74.152 40.0483 74.4645 39.8608C74.777 39.6733 75.1463 39.5795 75.5724 39.5795C75.9986 39.5795 76.3679 39.6733 76.6804 39.8608C76.9929 40.0483 77.2344 40.3116 77.4048 40.6506C77.5772 40.9896 77.6634 41.3845 77.6634 41.8352C77.6634 42.286 77.5772 42.6799 77.4048 43.017C77.2344 43.3542 76.9929 43.6165 76.6804 43.804C76.3679 43.9915 75.9986 44.0852 75.5724 44.0852ZM75.5781 43.2614C75.8092 43.2614 76.0024 43.1979 76.1577 43.071C76.313 42.9422 76.4285 42.7699 76.5043 42.554C76.5819 42.3381 76.6207 42.0975 76.6207 41.8324C76.6207 41.5653 76.5819 41.3239 76.5043 41.108C76.4285 40.8902 76.313 40.7169 76.1577 40.5881C76.0024 40.4593 75.8092 40.3949 75.5781 40.3949C75.3414 40.3949 75.1444 40.4593 74.9872 40.5881C74.8319 40.7169 74.7154 40.8902 74.6378 41.108C74.562 41.3239 74.5241 41.5653 74.5241 41.8324C74.5241 42.0975 74.562 42.3381 74.6378 42.554C74.7154 42.7699 74.8319 42.9422 74.9872 43.071C75.1444 43.1979 75.3414 43.2614 75.5781 43.2614ZM78.5362 45.6364V39.6364H79.5476V40.358H79.6072C79.6603 40.2519 79.7351 40.1392 79.8317 40.0199C79.9283 39.8987 80.0589 39.7955 80.2237 39.7102C80.3885 39.6231 80.5987 39.5795 80.8544 39.5795C81.1915 39.5795 81.4955 39.6657 81.7663 39.8381C82.0391 40.0085 82.255 40.2614 82.4141 40.5966C82.575 40.9299 82.6555 41.339 82.6555 41.8239C82.6555 42.303 82.5769 42.7102 82.4197 43.0455C82.2625 43.3807 82.0485 43.6364 81.7777 43.8125C81.5069 43.9886 81.2 44.0767 80.8572 44.0767C80.6072 44.0767 80.3999 44.035 80.2351 43.9517C80.0703 43.8684 79.9377 43.768 79.8374 43.6506C79.7389 43.5312 79.6622 43.4186 79.6072 43.3125H79.5646V45.6364H78.5362ZM79.5447 41.8182C79.5447 42.1004 79.5845 42.3475 79.6641 42.5597C79.7455 42.7718 79.862 42.9375 80.0135 43.0568C80.1669 43.1742 80.3525 43.233 80.5703 43.233C80.7976 43.233 80.9879 43.1723 81.1413 43.0511C81.2947 42.928 81.4103 42.7604 81.4879 42.5483C81.5675 42.3343 81.6072 42.0909 81.6072 41.8182C81.6072 41.5473 81.5684 41.3068 81.4908 41.0966C81.4131 40.8864 81.2976 40.7216 81.1442 40.6023C80.9908 40.483 80.7995 40.4233 80.5703 40.4233C80.3506 40.4233 80.1641 40.4811 80.0107 40.5966C79.8572 40.7121 79.7408 40.8741 79.6612 41.0824C79.5836 41.2907 79.5447 41.536 79.5447 41.8182ZM86.9851 40.7898L86.0476 40.892C86.0211 40.7973 85.9747 40.7083 85.9084 40.625C85.844 40.5417 85.7569 40.4744 85.647 40.4233C85.5372 40.3722 85.4027 40.3466 85.2436 40.3466C85.0296 40.3466 84.8497 40.393 84.7038 40.4858C84.5599 40.5786 84.4889 40.6989 84.4908 40.8466C84.4889 40.9735 84.5353 41.0767 84.63 41.1562C84.7266 41.2358 84.8857 41.3011 85.1072 41.3523L85.8516 41.5114C86.2644 41.6004 86.5713 41.7415 86.772 41.9347C86.9747 42.1278 87.0769 42.3807 87.0788 42.6932C87.0769 42.9678 86.9964 43.2102 86.8374 43.4205C86.6802 43.6288 86.4614 43.7917 86.1811 43.9091C85.9008 44.0265 85.5788 44.0852 85.2152 44.0852C84.6811 44.0852 84.2512 43.9735 83.9254 43.75C83.5997 43.5246 83.4055 43.2112 83.343 42.8097L84.3459 42.7131C84.3913 42.91 84.4879 43.0587 84.6357 43.1591C84.7834 43.2595 84.9756 43.3097 85.2124 43.3097C85.4567 43.3097 85.6527 43.2595 85.8004 43.1591C85.95 43.0587 86.0249 42.9347 86.0249 42.7869C86.0249 42.6619 85.9766 42.5587 85.88 42.4773C85.7853 42.3958 85.6375 42.3333 85.4368 42.2898L84.6925 42.1335C84.2739 42.0464 83.9643 41.8996 83.7635 41.6932C83.5627 41.4848 83.4633 41.2216 83.4652 40.9034C83.4633 40.6345 83.5362 40.4015 83.6839 40.2045C83.8336 40.0057 84.041 39.8523 84.3061 39.7443C84.5732 39.6345 84.8809 39.5795 85.2294 39.5795C85.7408 39.5795 86.1432 39.6884 86.4368 39.9062C86.7322 40.1241 86.915 40.4186 86.9851 40.7898Z" fill="#E2E2E2"/>
<line x1="55.9" y1="49" x2="55.9" y2="19" stroke="white" stroke-width="0.2"/>
<path d="M33.125 37.75C36.9219 37.75 40 34.6719 40 30.875C40 27.0781 36.9219 24 33.125 24C29.3281 24 26.25 27.0781 26.25 30.875C26.25 31.6055 26.3633 32.3125 26.5742 32.9727L20.2734 39.2734C20.0977 39.4492 20 39.6875 20 39.9375V43.0625C20 43.582 20.418 44 20.9375 44H24.0625C24.582 44 25 43.582 25 43.0625V41.5H26.5625C27.082 41.5 27.5 41.082 27.5 40.5625V39H29.0625C29.3125 39 29.5508 38.9023 29.7266 38.7266L31.0273 37.4258C31.6875 37.6367 32.3945 37.75 33.125 37.75ZM34.6875 27.75C35.1019 27.75 35.4993 27.9146 35.7924 28.2076C36.0854 28.5007 36.25 28.8981 36.25 29.3125C36.25 29.7269 36.0854 30.1243 35.7924 30.4174C35.4993 30.7104 35.1019 30.875 34.6875 30.875C34.2731 30.875 33.8757 30.7104 33.5826 30.4174C33.2896 30.1243 33.125 29.7269 33.125 29.3125C33.125 28.8981 33.2896 28.5007 33.5826 28.2076C33.8757 27.9146 34.2731 27.75 34.6875 27.75Z" fill="#F5D431"/>
</svg>
