<svg width="122" height="69" viewBox="0 0 122 69" fill="none" xmlns="http://www.w3.org/2000/svg">
<rect width="122" height="69" fill="#343E51"/>
<g clip-path="url(#clip0_1_33)">
<path d="M42.9325 26.9524L33.5388 43.6868C33.3449 44.0324 32.8466 44.0344 32.6497 43.6906L23.0699 26.9539C22.8553 26.5793 23.1769 26.1254 23.6031 26.2014L33.0069 27.8759C33.0669 27.8866 33.1283 27.8864 33.1883 27.8756L42.3953 26.2037C42.8201 26.1266 43.1432 26.577 42.9325 26.9524Z" fill="url(#paint0_linear_1_33)"/>
<path d="M37.4862 24.0049L30.5347 25.3619C30.4792 25.3728 30.4288 25.4017 30.3916 25.4442C30.3543 25.4866 30.3323 25.5402 30.329 25.5965L29.9014 32.7915C29.899 32.831 29.9059 32.8704 29.9216 32.9068C29.9372 32.9431 29.9611 32.9753 29.9914 33.0008C30.0217 33.0263 30.0576 33.0445 30.0962 33.0538C30.1347 33.0631 30.1749 33.0633 30.2136 33.0544L32.149 32.6094C32.3301 32.5678 32.4937 32.7267 32.4565 32.9081L31.8815 35.7133C31.8428 35.9021 32.0207 36.0635 32.2057 36.0075L33.4012 35.6457C33.5865 35.5896 33.7646 35.7515 33.7254 35.9405L32.8116 40.3468C32.7544 40.6224 33.1224 40.7727 33.2758 40.5364L33.3784 40.3786L39.0429 29.1163C39.1378 28.9278 38.9742 28.7128 38.7664 28.7528L36.7741 29.1358C36.5869 29.1717 36.4276 28.998 36.4804 28.8156L37.7807 24.325C37.8336 24.1421 37.6736 23.9683 37.4862 24.0049Z" fill="url(#paint1_linear_1_33)"/>
</g>
<line x1="58.4995" y1="49.988" x2="58.4995" y2="19.988" stroke="white" stroke-width="0.2"/>
<path d="M73.8594 31L75.9414 37.2969H76.0234L78.1016 31H79.6953L76.875 39H75.0859L72.2695 31H73.8594ZM80.6865 39V33H82.1006V39H80.6865ZM81.3975 32.1484C81.1735 32.1484 80.9808 32.0742 80.8193 31.9258C80.6579 31.7747 80.5771 31.5937 80.5771 31.3828C80.5771 31.1693 80.6579 30.9883 80.8193 30.8398C80.9808 30.6888 81.1735 30.6133 81.3975 30.6133C81.624 30.6133 81.8167 30.6888 81.9756 30.8398C82.137 30.9883 82.2178 31.1693 82.2178 31.3828C82.2178 31.5937 82.137 31.7747 81.9756 31.9258C81.8167 32.0742 81.624 32.1484 81.3975 32.1484ZM86.5508 33V34.0937H83.1016V33H86.5508ZM83.9531 31.5625H85.3672V37.1953C85.3672 37.3854 85.3958 37.5313 85.4531 37.6328C85.513 37.7318 85.5911 37.7995 85.6875 37.8359C85.7839 37.8724 85.8906 37.8906 86.0078 37.8906C86.0964 37.8906 86.1771 37.8841 86.25 37.8711C86.3255 37.8581 86.3828 37.8464 86.4219 37.8359L86.6602 38.9414C86.5846 38.9674 86.4766 38.9961 86.3359 39.0273C86.1979 39.0586 86.0286 39.0768 85.8281 39.082C85.474 39.0924 85.1549 39.0391 84.8711 38.9219C84.5872 38.8021 84.362 38.6172 84.1953 38.3672C84.0313 38.1172 83.9505 37.8047 83.9531 37.4297V31.5625ZM90.3252 39.1172C89.7236 39.1172 89.2041 38.9922 88.7666 38.7422C88.3317 38.4896 87.9971 38.1328 87.7627 37.6719C87.5283 37.2083 87.4111 36.6628 87.4111 36.0352C87.4111 35.418 87.5283 34.8763 87.7627 34.4102C87.9997 33.9414 88.3304 33.5768 88.7549 33.3164C89.1794 33.0534 89.6781 32.9219 90.251 32.9219C90.6208 32.9219 90.9697 32.9818 91.2979 33.1016C91.6286 33.2187 91.9202 33.401 92.1729 33.6484C92.4281 33.8958 92.6286 34.2109 92.7744 34.5937C92.9202 34.974 92.9932 35.4271 92.9932 35.9531V36.3867H88.0752V35.4336H91.6377C91.6351 35.1628 91.5765 34.9219 91.4619 34.7109C91.3473 34.4974 91.1872 34.3294 90.9814 34.207C90.7783 34.0846 90.5413 34.0234 90.2705 34.0234C89.9814 34.0234 89.7275 34.0937 89.5088 34.2344C89.29 34.3724 89.1195 34.5547 88.9971 34.7812C88.8773 35.0052 88.8161 35.2513 88.8135 35.5195V36.3516C88.8135 36.7005 88.8773 37 89.0049 37.25C89.1325 37.4974 89.3109 37.6875 89.54 37.8203C89.7692 37.9505 90.0374 38.0156 90.3447 38.0156C90.5505 38.0156 90.7367 37.987 90.9033 37.9297C91.07 37.8698 91.2145 37.7826 91.3369 37.668C91.4593 37.5534 91.5518 37.4115 91.6143 37.2422L92.9346 37.3906C92.8512 37.7396 92.6924 38.0443 92.458 38.3047C92.2262 38.5625 91.9294 38.763 91.5674 38.9062C91.2054 39.0469 90.7913 39.1172 90.3252 39.1172Z" fill="white"/>
<defs>
<linearGradient id="paint0_linear_1_33" x1="6.44388" y1="162.048" x2="1014.61" y2="1536.38" gradientUnits="userSpaceOnUse">
<stop stop-color="#41D1FF"/>
<stop offset="1" stop-color="#BD34FE"/>
</linearGradient>
<linearGradient id="paint1_linear_1_33" x1="427.642" y1="61.3375" x2="634.528" y2="1485.87" gradientUnits="userSpaceOnUse">
<stop stop-color="#FFEA83"/>
<stop offset="0.08333" stop-color="#FFDD35"/>
<stop offset="1" stop-color="#FFA800"/>
</linearGradient>
<clipPath id="clip0_1_33">
<rect width="20" height="20" fill="white" transform="translate(23 24)"/>
</clipPath>
</defs>
</svg>
